<?xml version="1.0" encoding="UTF-8"?>
<svg id="Livello_1" xmlns="http://www.w3.org/2000/svg" version="1.1" viewBox="0 0 100 100">
  <!-- Generator: Adobe Illustrator 29.8.1, SVG Export Plug-In . SVG Version: 2.1.1 Build 2)  -->
  <defs>
    <style>
      .st0 {
        fill: #fff;
      }
    </style>
  </defs>
  <path class="st0" d="M49.4,78.2h2.5c1.8,0,3.4-.8,4.5-2.2l15.6-20.5,15.6,20.5c1.1,1.4,2.7,2.2,4.5,2.2h2.5l-19.9-26.2,19-25h-2.5c-1.8,0-3.4.8-4.5,2.2l-14.7,19.3-14.7-19.3c-1.1-1.4-2.7-2.2-4.5-2.2h-2.5l19,25-19.9,26.2Z"/>
  <path class="st0" d="M50,54.2v-6.2c0-13.9-12.4-24.9-26.7-22.6-11.2,1.8-19.1,11.9-19.1,23.2v6c0,13.7,10,24.6,22.6,24.7,10.6.1,19.6-7,22.3-16.7h-2.1c-1.3,0-2.5.7-3,1.9-3.6,7.5-12.1,12.2-21.3,10.1-8.5-2-14.3-9.9-14.3-18.7v-1.6h41.7ZM8.3,49.4c0-9.8,5.8-17.8,14.4-19.7,12.2-2.7,23.1,6.5,23.1,18.3v2.1H8.3v-.6Z"/>
</svg>