<?xml version="1.0" encoding="UTF-8"?>
<svg id="Livello_1" xmlns="http://www.w3.org/2000/svg" version="1.1" viewBox="0 0 912.6 261.3">
  <!-- Generator: Adobe Illustrator 29.8.1, SVG Export Plug-In . SVG Version: 2.1.1 Build 2)  -->
  <defs>
    <style>
      .st0 {
        fill: #85ece2;
      }
    </style>
  </defs>
  <path class="st0" d="M0,255.3v-35.7c5.7,1.8,11.4,2.1,17.1,2.1,23.9,0,33.9-9.3,33.9-31.4V5.7h40.7v183.5c0,47.1-21.8,68.2-70.3,68.2s-15-.7-21.4-2.1Z"/>
  <path class="st0" d="M215.7,207.1h-66.1l-10,48.6h-38.6L156.4,5.7h55l56.1,249.9h-41.8l-10-48.6ZM208.2,171.7l-25.7-123.5-25.3,123.5h51.1Z"/>
  <path class="st0" d="M276.4,188.5v-115.7c0-45.3,26.1-70.7,71.8-70.7s71.8,25.3,71.8,70.7v17.9h-38.6v-19.3c0-22.5-12.1-34.6-32.5-34.6s-31.8,12.1-31.8,34.6v118.5c0,22.5,12.1,34.6,31.8,34.6s32.5-12.1,32.5-34.6v-26.4h38.6v25c0,45.3-25.7,70.7-71.8,70.7s-71.8-25.3-71.8-70.7Z"/>
  <path class="st0" d="M437.4,188.1v-115c0-45.3,26.4-71.1,73.9-71.1s73.9,25.7,73.9,71.1v115c0,45.3-26.4,71.1-73.9,71.1s-73.9-25.7-73.9-71.1ZM544.5,189.9v-118.5c0-21.8-11.8-33.6-33.2-33.6s-33.2,11.8-33.2,33.6v118.5c0,21.8,11.8,33.6,33.2,33.6s33.2-11.8,33.2-33.6Z"/>
  <path class="st0" d="M609.8,5.7h73.5c47.8,0,72.8,23.6,72.8,69.6v110.7c0,46.1-25,69.6-72.8,69.6h-73.5V5.7ZM682.7,219.9c23.2,0,32.8-9.6,32.8-33.2v-112.1c0-23.6-9.6-33.2-32.8-33.2h-32.1v178.5h32.1Z"/>
  <path class="st0" d="M780.5,5.7h132.1v35.7h-91.4v69.6h73.9v35.7h-73.9v73.2h91.4v35.7h-132.1V5.7Z"/>
</svg>