<?xml version="1.0" encoding="UTF-8"?>
<svg id="Livello_1" xmlns="http://www.w3.org/2000/svg" version="1.1" viewBox="0 0 800 800">
  <!-- Generator: Adobe Illustrator 29.8.1, SVG Export Plug-In . SVG Version: 2.1.1 Build 2)  -->
  <defs>
    <style>
      .st0 {
        fill: #85ece2;
        fill-rule: evenodd;
      }
    </style>
  </defs>
  <path class="st0" d="M306.4,140c90.9,0,165,74,165,165v47.1c0,50.8-23.6,95.7-59.8,126.1,39.2,5.8,78.1,14.6,116,26.9,51,16.6,85.3,64.9,85.3,120.1v83.5l-11.2,6.9c-61.8,38.5-163.3,84.4-295.2,84.4s-183.2-14.7-295.3-84.4l-11.1-6.9v-78.9c0-58.6,37.2-109.6,92.5-127,35.6-11.1,71.9-19.4,108.5-24.8-36.1-30.3-59.5-75.1-59.5-125.8v-47.1c0-91,74-165,165-165ZM493.1,0c90.9,0,165,74,165,165v47.1c0,50.8-23.6,95.8-59.8,126.1,39.2,5.8,78,14.6,116,26.9,51,16.7,85.3,64.9,85.3,120.1v83.5l-11.1,6.9c-32.3,20.1-75.8,42.1-128.4,58.6v-9.1c0-75.7-47.3-142-117.8-164.9-15.3-5-30.8-9.5-46.5-13.4,14.9-29.1,22.9-61.4,22.9-94.7v-47.1c0-104.4-75.8-190.8-175.2-208.4C369.5,39.8,426.5,0,493.1,0h0Z"/>
</svg>