<?xml version="1.0" encoding="UTF-8"?>
<svg id="Livello_1" xmlns="http://www.w3.org/2000/svg" version="1.1" viewBox="0 0 800 800">
  <!-- Generator: Adobe Illustrator 29.8.1, SVG Export Plug-In . SVG Version: 2.1.1 Build 2)  -->
  <defs>
    <style>
      .st0 {
        fill: #85ece2;
      }
    </style>
  </defs>
  <path class="st0" d="M538,98.6l-301,100c-202.3,67.7-202.3,178,0,245.3l89.3,29.7,29.7,89.3c67.3,202.3,178,202.3,245.3,0l100.3-300.7c44.7-135-28.7-208.7-163.7-163.7ZM548.6,278l-126.7,127.3c-5,5-11.3,7.3-17.7,7.3s-12.7-2.3-17.7-7.3c-9.7-9.7-9.7-25.7,0-35.3l126.7-127.3c9.7-9.7,25.7-9.7,35.3,0,9.7,9.7,9.7,25.7,0,35.3Z"/>
</svg>