<?xml version="1.0" encoding="UTF-8"?>
<svg id="Livello_1" xmlns="http://www.w3.org/2000/svg" version="1.1" viewBox="0 0 800 800">
  <!-- Generator: Adobe Illustrator 29.8.1, SVG Export Plug-In . SVG Version: 2.1.1 Build 2)  -->
  <defs>
    <style>
      .st0 {
        fill: #85ece2;
        fill-rule: evenodd;
      }
    </style>
  </defs>
  <path class="st0" d="M241.7,79.6c43.3-9.6,95.8-12.9,158.3-12.9s115,3.3,158.3,12.9c43.7,9.7,80,26.3,107.9,54.2,27.9,27.9,44.5,64.2,54.2,107.9,9.6,43.3,12.9,95.8,12.9,158.3s-3.3,115-12.9,158.3c-9.7,43.7-26.3,80-54.2,107.9-27.9,27.9-64.2,44.5-107.9,54.2-43.3,9.6-95.8,12.9-158.3,12.9s-115-3.3-158.3-12.9c-43.7-9.7-80-26.3-107.9-54.2-27.9-27.9-44.5-64.2-54.2-107.9-9.6-43.3-12.9-95.8-12.9-158.3s3.3-115,12.9-158.3c9.7-43.7,26.3-80,54.2-107.9,27.9-27.9,64.2-44.5,107.9-54.2ZM251.1,236.1h0s0,0,0,0h.2c0,0,.3-.2.3-.2l.7-.2c.5-.2,1-.3,1.5-.5,1.1-.3,2.3-.6,3.7-.9,15.9-3.1,42.5-.3,80.8,25.7,1,.6,1.9,1.3,2.9,2,1.3-.3,2.6-.6,3.9-.9,36.1-8.2,73.3-8.2,109.5,0,1.3.3,2.6.6,3.9.9,1-.7,1.9-1.3,2.9-2,38.2-25.9,64.7-28.8,80.6-25.7,1.4.3,2.6.6,3.8.9.6.2,1.1.3,1.6.5l.7.2h.3c0,.1.2.2.2.2h0s0,0,0,0h0c9,3.4,16.1,10.5,19.5,19.4.3.7.5,1.4.8,2.1,9,25,11.5,52.2,7.5,78.4-.2,1.6-.5,3.1-.8,4.7,1,1.6,1.9,3.2,2.9,4.8,14.3,25,21.7,54.2,21.3,83.7,0,63.7-16.8,109-47.6,139.1-30.1,29.4-68.5,39-100.3,42.8h0c-35.1,5.9-69.2,6.2-104.4.9h-1c-31.6-4.4-69.7-14.5-99.5-44.1-30.5-30.2-47.1-75.4-47.1-138.8-.4-29.5,7-58.7,21.4-83.7.9-1.6,1.9-3.2,2.9-4.8-.3-1.6-.6-3.1-.8-4.7-4.1-26.1-1.7-53.2,7.2-78.1.3-.8.6-1.6.9-2.3,3.4-9.1,10.5-16.2,19.6-19.6Z"/>
</svg>