<?xml version="1.0" encoding="UTF-8"?>
<svg id="Livello_1" xmlns="http://www.w3.org/2000/svg" version="1.1" viewBox="0 0 800 800">
  <!-- Generator: Adobe Illustrator 29.8.1, SVG Export Plug-In . SVG Version: 2.1.1 Build 2)  -->
  <defs>
    <style>
      .st0 {
        fill: #85ece2;
        fill-rule: evenodd;
      }
    </style>
  </defs>
  <path class="st0" d="M84,260.8c-17.3,31.6-17.3,69.8-17.3,146v50.7c0,130,0,195,39.1,235.4,39.1,40.4,101.9,40.4,227.6,40.4h133.3c125.7,0,188.6,0,227.6-40.4,39.1-40.4,39.1-105.4,39.1-235.4v-50.7c0-76.3,0-114.4-17.3-146-17.3-31.6-48.9-51.2-112.2-90.5l-66.7-41.4c-66.8-41.5-100.3-62.2-137.2-62.2s-70.4,20.7-137.2,62.2l-66.7,41.4c-63.2,39.2-94.9,58.9-112.2,90.5ZM314.9,513.2c-11.1-8.2-26.7-5.9-35,5.2-8.2,11.1-5.9,26.7,5.2,35,32.4,24,72.1,38.2,114.9,38.2s82.5-14.2,114.9-38.2c11.1-8.2,13.4-23.9,5.2-35-8.2-11.1-23.9-13.4-35-5.2-24.3,18-53.6,28.4-85.1,28.4s-60.8-10.4-85.1-28.4Z"/>
</svg>