<?xml version="1.0" encoding="UTF-8"?>
<svg id="Shopicons" xmlns="http://www.w3.org/2000/svg" version="1.1" viewBox="0 0 800 800">
  <!-- Generator: Adobe Illustrator 29.8.1, SVG Export Plug-In . SVG Version: 2.1.1 Build 2)  -->
  <defs>
    <style>
      .st0 {
        fill: #85ece2;
      }
    </style>
  </defs>
  <path class="st0" d="M600,66.7H200c-73.3,0-133.3,60-133.3,133.3v400c0,73.3,60,133.3,133.3,133.3h400c73.3,0,133.3-60,133.3-133.3V200c0-73.3-60-133.3-133.3-133.3ZM400,566.7c-91.7,0-166.7-75-166.7-166.7s75-166.7,166.7-166.7,166.7,75,166.7,166.7-75,166.7-166.7,166.7ZM583.3,250c-18.3,0-33.3-15-33.3-33.3s15-33.3,33.3-33.3,33.3,15,33.3,33.3-15,33.3-33.3,33.3Z"/>
</svg>