<?xml version="1.0" encoding="UTF-8"?>
<svg id="Livello_2" data-name="Livello 2" xmlns="http://www.w3.org/2000/svg" viewBox="0 0 649.98 982.25">
  <defs>
    <style>
      .cls-1 {
        stroke-width: .5px;
      }

      .cls-1, .cls-2, .cls-3, .cls-4 {
        fill: none;
        stroke: #00ffce;
        stroke-miterlimit: 10;
      }

      .cls-2 {
        stroke-width: 2px;
      }

      .cls-3 {
        stroke-width: 3px;
      }
    </style>
  </defs>
  <g id="Livello_1-2" data-name="Livello 1">
    <line class="cls-4" x1=".5" x2=".5" y2="982.25"/>
    <line class="cls-2" x1="114.94" x2="114.94" y2="982.25"/>
    <line class="cls-4" x1="19.57" y1="52.72" x2="19.57" y2="913.59"/>
    <line class="cls-3" x1="38.65" y1="18.38" x2="38.65" y2="913.59"/>
    <line class="cls-4" x1="57.72" x2="57.72" y2="982.25"/>
    <line class="cls-4" x1="76.79" y1="52.72" x2="76.79" y2="913.59"/>
    <line class="cls-4" x1="95.86" y1="18.38" x2="95.86" y2="913.59"/>
    <line class="cls-4" x1="134.01" x2="134.01" y2="982.25"/>
    <line class="cls-4" x1="248.45" x2="248.45" y2="982.25"/>
    <line class="cls-4" x1="153.08" y1="52.72" x2="153.08" y2="913.59"/>
    <line class="cls-4" x1="172.16" y1="18.38" x2="172.16" y2="913.59"/>
    <line class="cls-3" x1="191.23" x2="191.23" y2="982.25"/>
    <line class="cls-4" x1="210.3" y1="52.72" x2="210.3" y2="913.59"/>
    <line class="cls-4" x1="229.37" y1="18.38" x2="229.37" y2="913.59"/>
    <line class="cls-3" x1="267.52" x2="267.52" y2="982.25"/>
    <line class="cls-4" x1="381.96" x2="381.96" y2="982.25"/>
    <line class="cls-4" x1="286.59" y1="52.72" x2="286.59" y2="913.59"/>
    <line class="cls-2" x1="305.66" y1="18.38" x2="305.66" y2="913.59"/>
    <line class="cls-4" x1="324.74" x2="324.74" y2="982.25"/>
    <line class="cls-4" x1="343.81" y1="52.72" x2="343.81" y2="913.59"/>
    <line class="cls-4" x1="362.88" y1="18.38" x2="362.88" y2="913.59"/>
    <line class="cls-4" x1="401.03" x2="401.03" y2="982.25"/>
    <line class="cls-4" x1="515.47" x2="515.47" y2="982.25"/>
    <line class="cls-4" x1="420.1" y1="52.72" x2="420.1" y2="913.59"/>
    <line class="cls-4" x1="439.17" y1="18.38" x2="439.17" y2="913.59"/>
    <line class="cls-4" x1="458.25" x2="458.25" y2="982.25"/>
    <line class="cls-3" x1="477.32" y1="52.72" x2="477.32" y2="913.59"/>
    <line class="cls-4" x1="496.39" y1="18.38" x2="496.39" y2="913.59"/>
    <line class="cls-1" x1="534.54" x2="534.54" y2="982.25"/>
    <line class="cls-2" x1="648.98" x2="648.98" y2="982.25"/>
    <line class="cls-4" x1="553.61" y1="52.72" x2="553.61" y2="913.59"/>
    <line class="cls-4" x1="572.68" y1="18.38" x2="572.68" y2="913.59"/>
    <line class="cls-4" x1="591.76" x2="591.76" y2="982.25"/>
    <line class="cls-4" x1="610.83" y1="52.72" x2="610.83" y2="913.59"/>
    <line class="cls-4" x1="629.9" y1="18.38" x2="629.9" y2="913.59"/>
  </g>
</svg>