<?xml version="1.0" encoding="UTF-8"?>
<svg id="Livello_1" xmlns="http://www.w3.org/2000/svg" version="1.1" viewBox="0 0 800 800">
  <!-- Generator: Adobe Illustrator 29.8.1, SVG Export Plug-In . SVG Version: 2.1.1 Build 2)  -->
  <defs>
    <style>
      .st0 {
        fill: #85ece2;
      }
    </style>
  </defs>
  <path class="st0" d="M491.7,191.7h48.4c12.5,0,24.1,0,34.9,0v162.2l-23.5-13.1-.3-.2c-1.1-.6-3.2-1.8-5.3-2.7-2.7-1.2-7.1-2.7-12.5-2.7s-9.8,1.5-12.6,2.7c-2.1.9-4.2,2.1-5.3,2.7l-.3.2-23.5,13.1v-162.3Z"/>
  <path class="st0" d="M733.3,384.9v73.4c0,125.7,0,188.6-39.1,227.6-39,39.1-101.9,39.1-227.6,39.1h-133.3c-125.7,0-188.6,0-227.6-39.1-39.1-39-39.1-101.9-39.1-227.6v-235c0-29.4,0-44.1,2.3-56.4,10.2-53.9,52.4-96.1,106.3-106.3,12.3-2.3,27-2.3,56.4-2.3s19.3,0,25.5.6c26.7,2.5,52,13,72.7,30.1,4.8,4,9.3,8.5,18.5,17.6l18.3,18.3c27.2,27.2,40.8,40.8,57.1,49.8,5.8,3.2,11.8,6,17.9,8.3v190.3c0,4.5,0,10.1.6,14.8.6,4.9,2.8,15.9,13.3,23.2,11.6,8,23.4,5,28.8,3,4.5-1.6,9.4-4.4,12.9-6.3l.8-.5,35.2-19.7,35.2,19.7.8.5c3.5,2,8.4,4.7,12.9,6.3,5.4,2,17.2,5,28.8-3,10.6-7.3,12.7-18.4,13.3-23.2.6-4.7.6-10.3.6-14.8v-180.2c35,2.4,57.9,8.5,75.2,24.1,2.6,2.4,5.1,4.9,7.5,7.5,25.7,28.5,25.7,72.4,25.7,160.1Z"/>
</svg>