<?xml version="1.0" encoding="UTF-8"?>
<svg id="Livello_1" xmlns="http://www.w3.org/2000/svg" version="1.1" viewBox="0 0 800 800">
  <!-- Generator: Adobe Illustrator 29.8.1, SVG Export Plug-In . SVG Version: 2.1.1 Build 2)  -->
  <defs>
    <style>
      .st0 {
        fill: #85ece2;
      }
    </style>
  </defs>
  <g id="_页面-1" data-name="页面-1">
    <g id="File">
      <g id="profile_fill">
        <path id="_形状" data-name="形状" class="st0" d="M666.7,100c36.8,0,66.7,29.8,66.7,66.7v466.7c0,36.8-29.8,66.7-66.7,66.7H133.3c-36.8,0-66.7-29.8-66.7-66.7V166.7c0-36.8,29.8-66.7,66.7-66.7h533.3ZM566.7,500H233.3c-18.4,0-33.3,14.9-33.3,33.3s14.9,33.3,33.3,33.3h333.3c18.4,0,33.3-14.9,33.3-33.3s-14.9-33.3-33.3-33.3ZM333.3,233.3h-66.7c-35.1,0-63.9,27.2-66.5,61.7l-.2,5v66.7c0,35.1,27.2,63.9,61.7,66.5l5,.2h66.7c35.1,0,63.9-27.2,66.5-61.7l.2-5v-66.7c0-35.1-27.2-63.9-61.7-66.5l-5-.2ZM566.7,366.7h-100c-18.4,0-33.3,14.9-33.3,33.3s12.9,31.2,29.4,33.1l3.9.2h100c18.4,0,33.3-14.9,33.3-33.3s-12.9-31.2-29.4-33.1l-3.9-.2ZM333.3,300v66.7h-66.7v-66.7h66.7ZM566.7,233.3h-100c-18.4,0-33.3,14.9-33.3,33.3s14.9,33.3,33.3,33.3h100c18.4,0,33.3-14.9,33.3-33.3s-14.9-33.3-33.3-33.3Z"/>
      </g>
    </g>
  </g>
</svg>