<?xml version="1.0" encoding="UTF-8"?>
<svg id="Livello_2" data-name="Livello 2" xmlns="http://www.w3.org/2000/svg" viewBox="0 0 1590.99 738.71">
  <defs>
    <style>
      .cls-1 {
        opacity: .9;
      }

      .cls-1, .cls-2, .cls-3, .cls-4, .cls-5, .cls-6, .cls-7, .cls-8, .cls-9, .cls-10, .cls-11, .cls-12, .cls-13, .cls-14, .cls-15, .cls-16, .cls-17, .cls-18, .cls-19, .cls-20, .cls-21, .cls-22, .cls-23, .cls-24, .cls-25, .cls-26, .cls-27, .cls-28, .cls-29, .cls-30, .cls-31, .cls-32, .cls-33, .cls-34, .cls-35, .cls-36, .cls-37, .cls-38, .cls-39, .cls-40, .cls-41, .cls-42, .cls-43, .cls-44, .cls-45, .cls-46, .cls-47, .cls-48, .cls-49, .cls-50, .cls-51, .cls-52, .cls-53, .cls-54, .cls-55, .cls-56, .cls-57, .cls-58, .cls-59, .cls-60, .cls-61, .cls-62, .cls-63, .cls-64, .cls-65, .cls-66, .cls-67, .cls-68, .cls-69, .cls-70, .cls-71, .cls-72, .cls-73, .cls-74, .cls-75, .cls-76, .cls-77, .cls-78, .cls-79, .cls-80, .cls-81, .cls-82, .cls-83, .cls-84, .cls-85, .cls-86, .cls-87, .cls-88, .cls-89, .cls-90, .cls-91, .cls-92, .cls-93, .cls-94, .cls-95, .cls-96, .cls-97, .cls-98, .cls-99, .cls-100 {
        fill: #03e0ca;
      }

      .cls-2 {
        opacity: .91;
      }

      .cls-3 {
        opacity: .91;
      }

      .cls-4 {
        opacity: .91;
      }

      .cls-5 {
        opacity: .81;
      }

      .cls-6 {
        opacity: .77;
      }

      .cls-7 {
        opacity: .77;
      }

      .cls-8 {
        opacity: .78;
      }

      .cls-9 {
        opacity: .78;
      }

      .cls-10 {
        opacity: .78;
      }

      .cls-11 {
        opacity: .86;
      }

      .cls-12 {
        opacity: .86;
      }

      .cls-13 {
        opacity: .87;
      }

      .cls-14 {
        opacity: .91;
      }

      .cls-15 {
        opacity: .87;
      }

      .cls-16 {
        opacity: .89;
      }

      .cls-17 {
        opacity: .84;
      }

      .cls-18 {
        opacity: .84;
      }

      .cls-19 {
        opacity: .88;
      }

      .cls-20 {
        opacity: .88;
      }

      .cls-21 {
        opacity: .84;
      }

      .cls-22 {
        opacity: .85;
      }

      .cls-23 {
        opacity: .85;
      }

      .cls-24 {
        opacity: .85;
      }

      .cls-25 {
        opacity: .85;
      }

      .cls-26 {
        opacity: .86;
      }

      .cls-27 {
        opacity: .68;
      }

      .cls-28 {
        opacity: .69;
      }

      .cls-29 {
        opacity: .69;
      }

      .cls-30 {
        opacity: .69;
      }

      .cls-31 {
        opacity: .67;
      }

      .cls-32 {
        opacity: .76;
      }

      .cls-33 {
        opacity: .76;
      }

      .cls-34 {
        opacity: .72;
      }

      .cls-35 {
        opacity: .72;
      }

      .cls-36 {
        opacity: .72;
      }

      .cls-37 {
        opacity: .73;
      }

      .cls-38 {
        opacity: .93;
      }

      .cls-39 {
        opacity: .97;
      }

      .cls-40 {
        opacity: .94;
      }

      .cls-41 {
        opacity: .95;
      }

      .cls-42 {
        opacity: .94;
      }

      .cls-43 {
        opacity: .95;
      }

      .cls-44 {
        opacity: .95;
      }

      .cls-45 {
        opacity: .99;
      }

      .cls-46 {
        opacity: .99;
      }

      .cls-47 {
        opacity: .99;
      }

      .cls-48 {
        opacity: .96;
      }

      .cls-49 {
        opacity: .96;
      }

      .cls-50 {
        opacity: .96;
      }

      .cls-51 {
        opacity: .97;
      }

      .cls-52 {
        opacity: .97;
      }

      .cls-53 {
        opacity: .98;
      }

      .cls-54 {
        opacity: .97;
      }

      .cls-55 {
        opacity: .98;
      }

      .cls-56 {
        opacity: .95;
      }

      .cls-57 {
        opacity: .95;
      }

      .cls-58 {
        opacity: .64;
      }

      .cls-59 {
        opacity: .65;
      }

      .cls-60 {
        opacity: .65;
      }

      .cls-61 {
        opacity: .66;
      }

      .cls-62 {
        opacity: .66;
      }

      .cls-63 {
        opacity: .66;
      }

      .cls-64 {
        opacity: .66;
      }

      .cls-65 {
        opacity: .67;
      }

      .cls-66 {
        opacity: .67;
      }

      .cls-67 {
        opacity: .55;
      }

      .cls-68 {
        opacity: .56;
      }

      .cls-69 {
        opacity: .57;
      }

      .cls-70 {
        opacity: .52;
      }

      .cls-71 {
        opacity: .52;
      }

      .cls-72 {
        opacity: .52;
      }

      .cls-73 {
        opacity: .52;
      }

      .cls-74 {
        opacity: .52;
      }

      .cls-75 {
        opacity: .53;
      }

      .cls-76 {
        opacity: .53;
      }

      .cls-77 {
        opacity: .54;
      }

      .cls-78 {
        opacity: .54;
      }

      .cls-79 {
        opacity: .61;
      }

      .cls-80 {
        opacity: .62;
      }

      .cls-81 {
        opacity: .62;
      }

      .cls-82 {
        opacity: .62;
      }

      .cls-83 {
        opacity: .62;
      }

      .cls-84 {
        opacity: .63;
      }

      .cls-85 {
        opacity: .63;
      }

      .cls-86 {
        opacity: .63;
      }

      .cls-87 {
        opacity: .64;
      }

      .cls-88 {
        opacity: .61;
      }

      .cls-89 {
        opacity: .58;
      }

      .cls-90 {
        opacity: .59;
      }

      .cls-91 {
        opacity: .59;
      }

      .cls-92 {
        opacity: .63;
      }

      .cls-93 {
        opacity: .6;
      }

      .cls-94 {
        opacity: .6;
      }

      .cls-95 {
        opacity: .58;
      }

      .cls-96 {
        opacity: .58;
      }

      .cls-97 {
        opacity: .51;
      }

      .cls-98 {
        opacity: .5;
      }

      .cls-99 {
        opacity: .51;
      }

      .cls-100 {
        opacity: .51;
      }
    </style>
  </defs>
  <g id="Layer_1" data-name="Layer 1">
    <g>
      <polygon class="cls-24" points="12.21 0 9.98 0 28.06 10.52 28.06 252.5 0 268.85 0 270.14 28.89 253.31 29.16 253.15 29.16 9.88 12.21 0"/>
      <path class="cls-51" d="M28.61,283.8l-26.58-15.49v-30.97l26.58-15.49,26.59,15.49v30.97l-26.59,15.49ZM3.14,267.66l25.47,14.84,25.48-14.84v-29.67l-25.48-14.84-25.47,14.84v29.67Z"/>
      <polygon class="cls-34" points="45.02 0 28.61 9.56 12.21 0 9.98 0 28.61 10.85 47.24 0 45.02 0"/>
      <polygon class="cls-17" points="28.61 9.56 0 26.23 0 27.52 28.61 10.85 132.18 71.18 132.18 191.85 28.61 252.17 0 235.51 0 236.81 28.33 253.31 28.61 253.47 133.01 192.65 133.29 192.49 133.29 70.53 28.61 9.56"/>
      <path class="cls-46" d="M236.85,374.78l-104.68-60.98v-121.95l104.68-60.97,104.68,60.97v121.95l-104.68,60.98ZM133.29,313.15l103.57,60.34,103.56-60.34v-120.65l-103.56-60.33-103.57,60.33v120.65Z"/>
      <path class="cls-40" d="M236.85,374.78l-104.68-60.98v-121.95l104.68-60.97,104.68,60.97v121.95l-104.68,60.98ZM133.29,313.15l103.57,60.34,103.56-60.34v-120.65l-103.56-60.33-103.57,60.33v120.65Z"/>
      <polygon class="cls-53" points="253.27 0 236.85 9.56 220.45 0 218.23 0 236.85 10.85 255.48 0 253.27 0"/>
      <path class="cls-7" d="M236.85,253.47l-.27-.16-104.41-60.81v-121.96L236.85,9.56l104.68,60.97v121.96l-.27.16-104.41,60.81ZM133.29,191.85l103.57,60.33,103.56-60.33v-120.66L236.85,10.85l-103.57,60.33v120.66Z"/>
      <polygon class="cls-86" points="253.27 0 236.85 9.56 220.45 0 218.23 0 236.85 10.85 255.48 0 253.27 0"/>
      <polygon class="cls-31" points="496.61 0 496.61 40.21 445.1 70.22 393.59 40.21 393.59 0 392.48 0 392.48 40.86 445.1 71.51 497.72 40.86 497.72 0 496.61 0"/>
      <polygon class="cls-41" points="548.67 0 548.67 70.53 445.1 130.87 341.53 70.53 341.53 0 340.43 0 340.43 71.18 445.1 132.16 549.77 71.18 549.77 0 548.67 0"/>
      <path class="cls-75" d="M445.1,283.8l-26.59-15.49v-30.97l26.59-15.49,26.58,15.49v30.97l-26.58,15.49ZM419.63,267.66l25.47,14.84,25.48-14.84v-29.67l-25.48-14.84-25.47,14.84v29.67Z"/>
      <path class="cls-73" d="M236.85,253.47l-.27-.16-104.41-60.81v-121.96L236.85,9.56l104.68,60.97v121.96l-.27.16-104.41,60.81ZM133.29,191.85l103.57,60.33,103.56-60.33v-120.66L236.85,10.85l-103.57,60.33v120.66Z"/>
      <polygon class="cls-1" points="678.82 0 678.82 25.05 653.34 39.89 627.87 25.05 627.87 0 626.76 0 626.76 25.69 653.34 41.19 679.93 25.69 679.93 0 678.82 0"/>
      <path class="cls-72" d="M653.34,283.8l-26.59-15.49v-30.97l26.59-15.49,26.59,15.49v30.97l-26.59,15.49ZM627.87,267.66l25.48,14.84,25.47-14.84v-29.67l-25.47-14.84-25.48,14.84v29.67Z"/>
      <path class="cls-87" d="M445.1,617.4l-.28-.16-208.52-121.47v-243.26l.28-.16,208.52-121.47.27.16,208.52,121.47v243.26l-.27.17-208.52,121.46ZM237.41,495.12l207.69,120.98,207.68-120.98v-241.97l-207.68-120.98-207.69,120.98v241.97Z"/>
      <path class="cls-70" d="M445.1,253.47l-.28-.16-104.4-60.81v-121.96l104.67-60.97,104.66,60.97v121.96l-.27.16-104.4,60.81ZM341.53,191.85l103.58,60.33,103.57-60.33v-120.66l-103.57-60.33-103.58,60.33v120.66Z"/>
      <path class="cls-99" d="M653.34,314.12l-52.61-30.65v-61.29l52.61-30.65,52.61,30.65v61.29l-52.61,30.65ZM601.83,282.82l51.52,30.01,51.5-30.01v-60.01l-51.5-29.99-51.52,29.99v60.01Z"/>
      <polygon class="cls-95" points="965.15 0 965.15 70.53 861.58 130.87 758.02 70.53 758.02 0 756.91 0 756.91 71.18 861.58 132.16 965.99 71.35 966.26 71.18 966.26 0 965.15 0"/>
      <path class="cls-45" d="M653.34,253.47l-.28-.16-104.39-60.81v-121.96l104.68-60.97,104.67,60.97v121.96l-.28.16-104.39,60.81ZM549.78,191.85l103.57,60.33,103.56-60.33v-120.66l-103.56-60.33-103.57,60.33v120.66Z"/>
      <polygon class="cls-55" points="470.58 0 470.58 25.05 445.1 39.89 419.63 25.05 419.63 0 418.52 0 418.52 25.69 445.1 41.19 471.68 25.69 471.68 0 470.58 0"/>
      <polygon class="cls-39" points="965.15 0 965.15 70.53 861.58 130.87 758.02 70.53 758.02 0 756.91 0 756.91 71.18 861.58 132.16 965.99 71.35 966.26 71.18 966.26 0 965.15 0"/>
      <path class="cls-49" d="M445.1,374.78l-104.67-60.98v-121.95l104.67-60.97,104.66,60.97v121.95l-104.66,60.98ZM341.53,313.15l103.58,60.34,103.57-60.34v-120.65l-103.57-60.33-103.58,60.33v120.65Z"/>
      <path class="cls-85" d="M445.1,374.78l-104.67-60.98v-121.95l104.67-60.97,104.66,60.97v121.95l-104.66,60.98ZM341.53,313.15l103.58,60.34,103.57-60.34v-120.65l-103.57-60.33-103.58,60.33v120.65Z"/>
      <path class="cls-18" d="M653.34,678.05l-52.61-30.65v-61.3l52.61-30.64,52.61,30.64v61.3l-52.61,30.65ZM601.83,646.75l51.52,30.01,51.5-30.01v-60.01l-51.5-30.01-51.52,30.01v60.01Z"/>
      <path class="cls-3" d="M653.34,738.71l-104.68-60.97v-121.96l104.68-60.97,104.67,60.97v121.96l-104.67,60.97ZM549.78,677.09l103.57,60.33,103.56-60.33v-120.67l-103.56-60.32-103.57,60.32v120.67Z"/>
      <polygon class="cls-60" points="756.91 0 756.91 70.53 653.34 130.87 549.78 70.53 549.78 0 548.67 0 548.67 71.18 653.34 132.16 758.02 71.18 758.02 0 756.91 0"/>
      <polygon class="cls-48" points="878 0 861.58 9.56 845.18 0 842.96 0 861.58 10.85 880.21 0 878 0"/>
      <path class="cls-43" d="M861.58,617.4l-.28-.16-208.52-121.47v-243.26l.28-.16,208.52-121.47.28.16,208.52,121.47v243.26l-.28.17-208.52,121.46ZM653.89,495.12l207.69,120.98,207.69-120.98v-241.97l-207.69-120.98-207.69,120.98v241.97Z"/>
      <path class="cls-5" d="M1069.82,314.12l-52.61-30.65v-61.29l52.61-30.65,52.62,30.65v61.29l-52.62,30.65ZM1018.32,282.82l51.5,30.01,51.51-30.01v-60.01l-51.51-29.99-51.5,29.99v60.01Z"/>
      <path class="cls-67" d="M861.58,678.05l-52.61-30.65v-61.3l52.61-30.64,52.61,30.64v61.3l-52.61,30.65ZM810.08,646.75l51.5,30.01,51.5-30.01v-60.01l-51.5-30.01-51.5,30.01v60.01Z"/>
      <polygon class="cls-57" points="1086.24 0 1069.82 9.56 1053.42 0 1051.2 0 1069.82 10.85 1088.45 0 1086.24 0"/>
      <polygon class="cls-20" points="1381.64 0 1381.64 70.53 1278.07 130.87 1174.51 70.53 1174.51 0 1173.4 0 1173.4 71.18 1278.07 132.16 1382.75 71.18 1382.75 0 1381.64 0"/>
      <polygon class="cls-97" points="965.15 0 965.15 70.53 861.58 130.87 758.02 70.53 758.02 0 756.91 0 756.91 71.18 861.58 132.16 965.99 71.35 966.26 71.18 966.26 0 965.15 0"/>
      <polygon class="cls-23" points="1259.45 0 1277.51 10.52 1277.51 252.5 1069.82 373.49 862.13 252.5 862.13 10.52 880.21 0 878 0 861.3 9.72 861.03 9.88 861.03 253.15 1069.55 374.62 1069.82 374.78 1278.34 253.31 1278.62 253.15 1278.62 9.88 1261.66 0 1259.45 0"/>
      <path class="cls-88" d="M1278.07,283.8l-26.59-15.49v-30.97l26.59-15.49,26.57,15.49v30.97l-26.57,15.49ZM1252.6,267.66l25.47,14.84,25.48-14.84v-29.67l-25.48-14.84-25.47,14.84v29.67Z"/>
      <path class="cls-81" d="M861.58,374.78l-104.68-60.98v-121.95l104.68-60.97.28.16,104.4,60.82v121.95l-.27.17-104.4,60.81ZM758.02,313.15l103.57,60.34,103.57-60.34v-120.65l-103.57-60.33-103.57,60.33v120.65Z"/>
      <path class="cls-19" d="M1069.82,617.4l-.27-.16-208.52-121.47v-243.26l.27-.16,208.52-121.47.28.16,208.52,121.47v243.26l-.28.17-208.52,121.46ZM862.13,495.12l207.69,120.98,207.69-120.98v-241.97l-207.69-120.98-207.69,120.98v241.97Z"/>
      <path class="cls-89" d="M1069.82,678.05l-52.61-30.65v-61.3l52.61-30.64,52.62,30.64v61.3l-52.62,30.65ZM1018.32,646.75l51.5,30.01,51.51-30.01v-60.01l-51.51-30.01-51.5,30.01v60.01Z"/>
      <path class="cls-77" d="M861.58,617.4l-.28-.16-104.39-60.82v-121.96l104.68-60.97.28.16,104.4,60.81v121.96l-.27.16-104.4,60.82ZM758.02,555.77l103.57,60.33,103.57-60.33v-120.67l-103.57-60.33-103.57,60.33v120.67Z"/>
      <polygon class="cls-25" points="1589.89 0 1589.89 70.53 1486.31 130.87 1382.75 70.53 1382.75 0 1381.64 0 1381.64 71.18 1486.31 132.16 1590.99 71.18 1590.99 0 1589.89 0"/>
      <path class="cls-8" d="M1278.07,192.82l-52.61-30.66v-61.29l52.61-30.65,52.61,30.65v61.29l-52.61,30.66ZM1226.56,161.51l51.51,30.02,51.5-30.02v-60l-51.5-30-51.51,30v60Z"/>
      <polygon class="cls-82" points="1294.48 0 1278.07 9.56 1261.66 0 1259.45 0 1278.07 10.85 1296.7 0 1294.48 0"/>
      <polygon class="cls-59" points="1537.82 0 1537.82 40.21 1486.31 70.22 1434.81 40.21 1434.81 0 1433.7 0 1433.7 40.86 1486.31 71.51 1538.94 40.86 1538.94 0 1537.82 0"/>
      <polygon class="cls-79" points="1589.89 0 1589.89 70.53 1486.31 130.87 1382.75 70.53 1382.75 0 1381.64 0 1381.64 71.18 1486.31 132.16 1590.99 71.18 1590.99 0 1589.89 0"/>
      <path class="cls-44" d="M1069.82,374.78l-104.68-60.98v-121.95l104.68-60.97.28.16,104.4,60.82v121.95l-.27.17-104.4,60.81ZM966.26,313.15l103.57,60.34,103.57-60.34v-120.65l-103.57-60.33-103.57,60.33v120.65Z"/>
      <path class="cls-92" d="M1486.31,617.4l-.28-.16-104.39-60.82v-121.96l104.67-60.97,104.67,60.97v121.96l-.27.16-104.41,60.82ZM1382.75,555.77l103.56,60.33,103.58-60.33v-120.67l-103.58-60.33-103.56,60.33v120.67Z"/>
      <path class="cls-66" d="M1069.82,617.4l-.27-.16-104.4-60.82v-121.96l104.68-60.97.28.16,104.4,60.81v121.96l-.27.16-104.4,60.82ZM966.26,555.77l103.57,60.33,103.57-60.33v-120.67l-103.57-60.33-103.57,60.33v120.67Z"/>
      <path class="cls-28" d="M35.25,283.15c0,3.7-2.97,6.7-6.64,6.7s-6.64-3-6.64-6.7,2.97-6.72,6.64-6.72,6.64,3.02,6.64,6.72Z"/>
      <path class="cls-54" d="M139.38,192.18c0,3.7-2.98,6.7-6.64,6.7s-6.65-3-6.65-6.7,2.98-6.71,6.65-6.71,6.64,3,6.64,6.71Z"/>
      <path class="cls-2" d="M243.5,10.2c0,3.7-2.98,6.7-6.65,6.7s-6.64-3-6.64-6.7,2.98-6.7,6.64-6.7,6.65,3,6.65,6.7Z"/>
      <path class="cls-12" d="M243.5,252.82c0,3.71-2.98,6.7-6.65,6.7s-6.64-2.99-6.64-6.7,2.98-6.7,6.64-6.7,6.65,3,6.65,6.7Z"/>
      <path class="cls-36" d="M399.68,40.54c0,3.7-2.98,6.7-6.64,6.7s-6.65-3-6.65-6.7,2.98-6.72,6.65-6.72,6.64,3,6.64,6.72Z"/>
      <path class="cls-78" d="M503.81,40.54c0,3.7-2.98,6.7-6.65,6.7s-6.64-3-6.64-6.7,2.98-6.72,6.64-6.72,6.65,3,6.65,6.72Z"/>
      <path class="cls-26" d="M347.62,70.86c0,3.7-2.97,6.7-6.64,6.7s-6.64-3-6.64-6.7,2.97-6.7,6.64-6.7,6.64,2.99,6.64,6.7Z"/>
      <path class="cls-29" d="M451.74,283.15c0,3.7-2.98,6.7-6.64,6.7s-6.65-3-6.65-6.7,2.98-6.72,6.65-6.72,6.64,3.02,6.64,6.72Z"/>
      <path class="cls-80" d="M243.5,252.82c0,3.71-2.98,6.7-6.65,6.7s-6.64-2.99-6.64-6.7,2.98-6.7,6.64-6.7,6.65,3,6.65,6.7Z"/>
      <path class="cls-100" d="M347.62,192.18c0,3.7-2.98,6.7-6.64,6.7s-6.65-3-6.65-6.7,2.98-6.71,6.65-6.71,6.64,3,6.64,6.71Z"/>
      <path class="cls-15" d="M659.98,40.54c0,3.7-2.98,6.7-6.64,6.7s-6.65-3-6.65-6.7,2.98-6.72,6.65-6.72,6.64,3,6.64,6.72Z"/>
      <path class="cls-63" d="M686.02,237.66c0,3.7-2.98,6.7-6.65,6.7s-6.64-3-6.64-6.7,2.98-6.7,6.64-6.7,6.65,3,6.65,6.7Z"/>
      <path class="cls-62" d="M451.74,616.75c0,3.7-2.98,6.7-6.64,6.7s-6.65-3-6.65-6.7,2.98-6.7,6.65-6.7,6.64,3,6.64,6.7Z"/>
      <path class="cls-56" d="M659.98,495.45c0,3.7-2.98,6.7-6.64,6.7s-6.65-3-6.65-6.7,2.98-6.7,6.65-6.7,6.64,2.99,6.64,6.7Z"/>
      <path class="cls-58" d="M243.5,252.82c0,3.71-2.98,6.7-6.65,6.7s-6.64-2.99-6.64-6.7,2.98-6.7,6.64-6.7,6.65,3,6.65,6.7Z"/>
      <path class="cls-71" d="M451.74,252.82c0,3.71-2.98,6.7-6.64,6.7s-6.65-2.99-6.65-6.7,2.98-6.7,6.65-6.7,6.64,3,6.64,6.7Z"/>
      <path class="cls-33" d="M555.87,192.18c0,3.7-2.98,6.7-6.65,6.7s-6.64-3-6.64-6.7,2.97-6.71,6.64-6.71,6.65,3,6.65,6.71Z"/>
      <path class="cls-83" d="M555.87,70.86c0,3.7-2.98,6.7-6.65,6.7s-6.64-3-6.64-6.7,2.97-6.7,6.64-6.7,6.65,2.99,6.65,6.7Z"/>
      <path class="cls-98" d="M712.05,222.5c0,3.7-2.98,6.7-6.64,6.7s-6.65-3-6.65-6.7,2.98-6.7,6.65-6.7,6.64,2.99,6.64,6.7Z"/>
      <path class="cls-14" d="M972.35,70.86c0,3.7-2.98,6.7-6.64,6.7s-6.64-3-6.64-6.7,2.97-6.7,6.64-6.7,6.64,2.99,6.64,6.7Z"/>
      <path class="cls-93" d="M414.63,0c1.17,1.07,2.72,1.74,4.43,1.74s3.26-.67,4.44-1.74h-8.88Z"/>
      <path class="cls-94" d="M868.23,131.52c0,3.7-2.97,6.7-6.64,6.7s-6.64-3-6.64-6.7,2.97-6.71,6.64-6.71,6.64,3,6.64,6.71Z"/>
      <path class="cls-61" d="M555.87,192.18c0,3.7-2.98,6.7-6.65,6.7s-6.64-3-6.64-6.7,2.97-6.71,6.64-6.71,6.65,3,6.65,6.71Z"/>
      <path class="cls-96" d="M712.05,647.08c0,3.7-2.98,6.7-6.64,6.7s-6.65-3-6.65-6.7,2.98-6.7,6.65-6.7,6.64,2.99,6.64,6.7Z"/>
      <path class="cls-38" d="M659.98,556.09c0,3.71-2.98,6.71-6.64,6.71s-6.65-3-6.65-6.71,2.98-6.7,6.65-6.7,6.64,3,6.64,6.7Z"/>
      <path class="cls-84" d="M607.92,586.43c0,3.7-2.97,6.7-6.64,6.7s-6.64-3-6.64-6.7,2.97-6.71,6.64-6.71,6.64,3.02,6.64,6.71Z"/>
      <path class="cls-30" d="M555.87,677.4c0,3.7-2.98,6.7-6.65,6.7s-6.64-3.01-6.64-6.7,2.98-6.7,6.64-6.7,6.65,3,6.65,6.7Z"/>
      <path class="cls-6" d="M659.98,131.52c0,3.7-2.98,6.7-6.64,6.7s-6.65-3-6.65-6.7,2.98-6.71,6.65-6.71,6.64,3,6.64,6.71Z"/>
      <path class="cls-21" d="M764.11,70.86c0,3.7-2.98,6.7-6.66,6.7s-6.64-3-6.64-6.7,2.98-6.7,6.64-6.7,6.66,2.99,6.66,6.7Z"/>
      <path class="cls-47" d="M1128.54,283.15c0,3.7-2.98,6.7-6.65,6.7s-6.64-3-6.64-6.7,2.98-6.72,6.64-6.72,6.65,3.02,6.65,6.72Z"/>
      <path class="cls-50" d="M1128.54,222.5c0,3.7-2.98,6.7-6.65,6.7s-6.64-3-6.64-6.7,2.98-6.7,6.64-6.7,6.65,2.99,6.65,6.7Z"/>
      <path class="cls-27" d="M1388.84,70.86c0,3.7-2.98,6.7-6.65,6.7s-6.64-3-6.64-6.7,2.98-6.7,6.64-6.7,6.65,2.99,6.65,6.7Z"/>
      <path class="cls-4" d="M764.11,70.86c0,3.7-2.98,6.7-6.64,6.7s-6.65-3-6.65-6.7,2.98-6.7,6.65-6.7,6.64,2.99,6.64,6.7Z"/>
      <path class="cls-37" d="M972.35,70.86c0,3.7-2.98,6.7-6.64,6.7s-6.64-3-6.64-6.7,2.97-6.7,6.64-6.7,6.64,2.99,6.64,6.7Z"/>
      <path class="cls-74" d="M868.23,252.82c0,3.71-2.97,6.7-6.64,6.7s-6.64-2.99-6.64-6.7,2.97-6.7,6.64-6.7,6.64,3,6.64,6.7Z"/>
      <path class="cls-32" d="M868.23,10.2c0,3.7-2.97,6.7-6.64,6.7s-6.64-3-6.64-6.7,2.97-6.7,6.64-6.7,6.64,3,6.64,6.7Z"/>
      <path class="cls-69" d="M1258.69,267.99c0,3.7-2.98,6.7-6.65,6.7s-6.64-3-6.64-6.7,2.98-6.71,6.64-6.71,6.65,3,6.65,6.71Z"/>
      <path class="cls-64" d="M1310.75,237.66c0,3.7-2.98,6.7-6.65,6.7s-6.64-3-6.64-6.7,2.98-6.7,6.64-6.7,6.65,3,6.65,6.7Z"/>
      <path class="cls-10" d="M1284.72,222.5c0,3.7-2.98,6.7-6.64,6.7s-6.64-3-6.64-6.7,2.97-6.7,6.64-6.7,6.64,2.99,6.64,6.7Z"/>
      <path class="cls-13" d="M1076.48,677.4c0,3.7-2.98,6.7-6.65,6.7s-6.64-3.01-6.64-6.7,2.98-6.7,6.64-6.7,6.65,3,6.65,6.7Z"/>
      <path class="cls-42" d="M972.35,434.79c0,3.7-2.98,6.7-6.64,6.7s-6.64-3-6.64-6.7,2.97-6.72,6.64-6.72,6.64,3.02,6.64,6.72Z"/>
      <path class="cls-22" d="M868.23,374.13c0,3.7-2.97,6.7-6.64,6.7s-6.64-3-6.64-6.7,2.97-6.7,6.64-6.7,6.64,3,6.64,6.7Z"/>
      <path class="cls-68" d="M1388.84,70.86c0,3.7-2.98,6.7-6.64,6.7s-6.65-3-6.65-6.7,2.98-6.7,6.65-6.7,6.64,2.99,6.64,6.7Z"/>
      <path class="cls-11" d="M1492.96,131.52c0,3.7-2.97,6.7-6.64,6.7s-6.64-3-6.64-6.7,2.97-6.71,6.64-6.71,6.64,3,6.64,6.71Z"/>
      <path class="cls-76" d="M1284.72,192.18c0,3.7-2.98,6.7-6.64,6.7s-6.64-3-6.64-6.7,2.97-6.71,6.64-6.71,6.64,3,6.64,6.71Z"/>
      <path class="cls-35" d="M1440.9,40.54c0,3.7-2.98,6.7-6.65,6.7s-6.64-3-6.64-6.7,2.98-6.72,6.64-6.72,6.65,3,6.65,6.72Z"/>
      <path class="cls-90" d="M1545.02,40.54c0,3.7-2.98,6.7-6.64,6.7s-6.64-3-6.64-6.7,2.98-6.72,6.64-6.72,6.64,3,6.64,6.72Z"/>
      <path class="cls-16" d="M972.35,313.48c0,3.7-2.98,6.7-6.64,6.7s-6.64-3-6.64-6.7,2.97-6.7,6.64-6.7,6.64,3,6.64,6.7Z"/>
      <path class="cls-91" d="M1180.59,313.48c0,3.7-2.96,6.7-6.64,6.7s-6.64-3-6.64-6.7,2.97-6.7,6.64-6.7,6.64,3,6.64,6.7Z"/>
      <path class="cls-52" d="M1492.96,374.13c0,3.7-2.97,6.7-6.64,6.7s-6.64-3-6.64-6.7,2.97-6.7,6.64-6.7,6.64,3,6.64,6.7Z"/>
      <path class="cls-65" d="M1076.48,616.75c0,3.7-2.98,6.7-6.65,6.7s-6.64-3-6.64-6.7,2.98-6.7,6.64-6.7,6.65,3,6.65,6.7Z"/>
      <path class="cls-9" d="M1076.48,374.13c0,3.7-2.98,6.7-6.65,6.7s-6.64-3-6.64-6.7,2.98-6.7,6.64-6.7,6.65,3,6.65,6.7Z"/>
    </g>
  </g>
</svg>