<?xml version="1.0" encoding="UTF-8"?>
<svg id="Livello_2" data-name="Livello 2" xmlns="http://www.w3.org/2000/svg" viewBox="0 0 1930.73 889.95">
  <defs>
    <style>
      .cls-1 {
        opacity: .5;
      }

      .cls-1, .cls-2, .cls-3, .cls-4, .cls-5, .cls-6, .cls-7, .cls-8, .cls-9, .cls-10, .cls-11, .cls-12, .cls-13, .cls-14, .cls-15, .cls-16, .cls-17, .cls-18, .cls-19, .cls-20, .cls-21, .cls-22, .cls-23, .cls-24, .cls-25, .cls-26, .cls-27, .cls-28, .cls-29, .cls-30, .cls-31, .cls-32, .cls-33, .cls-34, .cls-35, .cls-36, .cls-37, .cls-38, .cls-39, .cls-40, .cls-41, .cls-42, .cls-43, .cls-44, .cls-45, .cls-46, .cls-47, .cls-48, .cls-49, .cls-50, .cls-51, .cls-52, .cls-53, .cls-54, .cls-55, .cls-56, .cls-57, .cls-58, .cls-59, .cls-60, .cls-61, .cls-62, .cls-63, .cls-64, .cls-65, .cls-66, .cls-67, .cls-68, .cls-69, .cls-70, .cls-71, .cls-72, .cls-73, .cls-74, .cls-75, .cls-76, .cls-77, .cls-78, .cls-79, .cls-80, .cls-81, .cls-82, .cls-83, .cls-84, .cls-85, .cls-86, .cls-87, .cls-88, .cls-89, .cls-90, .cls-91, .cls-92, .cls-93, .cls-94, .cls-95, .cls-96, .cls-97, .cls-98, .cls-99, .cls-100, .cls-101, .cls-102, .cls-103, .cls-104, .cls-105, .cls-106, .cls-107, .cls-108, .cls-109, .cls-110, .cls-111, .cls-112, .cls-113, .cls-114, .cls-115, .cls-116, .cls-117, .cls-118, .cls-119, .cls-120, .cls-121, .cls-122, .cls-123, .cls-124, .cls-125, .cls-126, .cls-127, .cls-128, .cls-129, .cls-130, .cls-131, .cls-132, .cls-133, .cls-134, .cls-135, .cls-136, .cls-137, .cls-138, .cls-139, .cls-140, .cls-141, .cls-142, .cls-143, .cls-144, .cls-145, .cls-146, .cls-147, .cls-148, .cls-149, .cls-150, .cls-151, .cls-152 {
        fill: #808285;
      }

      .cls-2 {
        opacity: .5;
      }

      .cls-3 {
        opacity: .51;
      }

      .cls-4 {
        opacity: .51;
      }

      .cls-5 {
        opacity: .52;
      }

      .cls-6 {
        opacity: .52;
      }

      .cls-7 {
        opacity: .52;
      }

      .cls-8 {
        opacity: .52;
      }

      .cls-9 {
        opacity: .52;
      }

      .cls-10 {
        opacity: .52;
      }

      .cls-11 {
        opacity: .53;
      }

      .cls-12 {
        opacity: .54;
      }

      .cls-13 {
        opacity: .54;
      }

      .cls-14 {
        opacity: .54;
      }

      .cls-15 {
        opacity: .55;
      }

      .cls-16 {
        opacity: .58;
      }

      .cls-17 {
        opacity: .55;
      }

      .cls-18 {
        opacity: .55;
      }

      .cls-19 {
        opacity: .56;
      }

      .cls-20 {
        opacity: .56;
      }

      .cls-21 {
        opacity: .55;
      }

      .cls-22 {
        opacity: .57;
      }

      .cls-23 {
        opacity: .57;
      }

      .cls-24 {
        opacity: .56;
      }

      .cls-25 {
        opacity: .57;
      }

      .cls-26 {
        opacity: .57;
      }

      .cls-27 {
        opacity: .58;
      }

      .cls-28 {
        opacity: .57;
      }

      .cls-29 {
        opacity: .93;
      }

      .cls-30 {
        opacity: .93;
      }

      .cls-31 {
        opacity: .93;
      }

      .cls-32 {
        opacity: .94;
      }

      .cls-33 {
        opacity: .93;
      }

      .cls-34 {
        opacity: .94;
      }

      .cls-35 {
        opacity: .94;
      }

      .cls-36 {
        opacity: .95;
      }

      .cls-37 {
        opacity: .95;
      }

      .cls-38 {
        opacity: .95;
      }

      .cls-39 {
        opacity: .95;
      }

      .cls-40 {
        opacity: .96;
      }

      .cls-41 {
        opacity: .94;
      }

      .cls-42 {
        opacity: .98;
      }

      .cls-43 {
        opacity: .98;
      }

      .cls-44 {
        opacity: .99;
      }

      .cls-45 {
        opacity: .99;
      }

      .cls-46 {
        opacity: .99;
      }

      .cls-47 {
        opacity: .99;
      }

      .cls-48 {
        opacity: .99;
      }

      .cls-49 {
        opacity: 1;
      }

      .cls-50 {
        opacity: 1;
      }

      .cls-51 {
        opacity: 1;
      }

      .cls-52 {
        opacity: .99;
      }

      .cls-53 {
        opacity: .99;
      }

      .cls-54 {
        opacity: 1;
      }

      .cls-55 {
        opacity: .58;
      }

      .cls-56 {
        opacity: .58;
      }

      .cls-57 {
        opacity: .59;
      }

      .cls-58 {
        opacity: .6;
      }

      .cls-59 {
        opacity: .6;
      }

      .cls-60 {
        opacity: .6;
      }

      .cls-61 {
        opacity: .61;
      }

      .cls-62 {
        opacity: .61;
      }

      .cls-63 {
        opacity: .62;
      }

      .cls-64 {
        opacity: .62;
      }

      .cls-65 {
        opacity: .62;
      }

      .cls-66 {
        opacity: .63;
      }

      .cls-67 {
        opacity: .63;
      }

      .cls-68 {
        opacity: .63;
      }

      .cls-69 {
        opacity: .63;
      }

      .cls-70 {
        opacity: .64;
      }

      .cls-71 {
        opacity: .63;
      }

      .cls-72 {
        opacity: .63;
      }

      .cls-73 {
        opacity: .64;
      }

      .cls-74 {
        opacity: .65;
      }

      .cls-75 {
        opacity: .64;
      }

      .cls-76 {
        opacity: .65;
      }

      .cls-77 {
        opacity: .65;
      }

      .cls-78 {
        opacity: .65;
      }

      .cls-79 {
        opacity: .65;
      }

      .cls-80 {
        opacity: .66;
      }

      .cls-81 {
        opacity: .65;
      }

      .cls-82 {
        opacity: .67;
      }

      .cls-83 {
        opacity: .66;
      }

      .cls-84 {
        opacity: .83;
      }

      .cls-85 {
        opacity: .83;
      }

      .cls-86 {
        opacity: .83;
      }

      .cls-87 {
        opacity: .84;
      }

      .cls-88 {
        opacity: .85;
      }

      .cls-89 {
        opacity: .85;
      }

      .cls-90 {
        opacity: .86;
      }

      .cls-91 {
        opacity: .85;
      }

      .cls-92 {
        opacity: .85;
      }

      .cls-93 {
        opacity: .85;
      }

      .cls-94 {
        opacity: .85;
      }

      .cls-95 {
        opacity: .87;
      }

      .cls-96 {
        opacity: .87;
      }

      .cls-97 {
        opacity: .87;
      }

      .cls-98 {
        opacity: .88;
      }

      .cls-99 {
        opacity: .88;
      }

      .cls-100 {
        opacity: .89;
      }

      .cls-101 {
        opacity: .88;
      }

      .cls-102 {
        opacity: .89;
      }

      .cls-103 {
        opacity: .89;
      }

      .cls-104 {
        opacity: .89;
      }

      .cls-105 {
        opacity: .9;
      }

      .cls-106 {
        opacity: .9;
      }

      .cls-107 {
        opacity: .9;
      }

      .cls-108 {
        opacity: .92;
      }

      .cls-109 {
        opacity: .92;
      }

      .cls-110 {
        opacity: .91;
      }

      .cls-111 {
        opacity: .67;
      }

      .cls-112 {
        opacity: .67;
      }

      .cls-113 {
        opacity: .68;
      }

      .cls-114 {
        opacity: .68;
      }

      .cls-115 {
        opacity: .69;
      }

      .cls-116 {
        opacity: .69;
      }

      .cls-117 {
        opacity: .69;
      }

      .cls-118 {
        opacity: .7;
      }

      .cls-119 {
        opacity: .7;
      }

      .cls-120 {
        opacity: .72;
      }

      .cls-121 {
        opacity: .72;
      }

      .cls-122 {
        opacity: .71;
      }

      .cls-123 {
        opacity: .72;
      }

      .cls-124 {
        opacity: .73;
      }

      .cls-125 {
        opacity: .73;
      }

      .cls-126 {
        opacity: .72;
      }

      .cls-127 {
        opacity: .73;
      }

      .cls-128 {
        opacity: .74;
      }

      .cls-129 {
        opacity: .74;
      }

      .cls-130 {
        opacity: .76;
      }

      .cls-131 {
        opacity: .75;
      }

      .cls-132 {
        opacity: .76;
      }

      .cls-133 {
        opacity: .77;
      }

      .cls-134 {
        opacity: .77;
      }

      .cls-135 {
        opacity: .77;
      }

      .cls-136 {
        opacity: .77;
      }

      .cls-137 {
        opacity: .77;
      }

      .cls-138 {
        opacity: .78;
      }

      .cls-139 {
        opacity: .78;
      }

      .cls-140 {
        opacity: .78;
      }

      .cls-141 {
        opacity: .75;
      }

      .cls-142 {
        opacity: .78;
      }

      .cls-143 {
        opacity: .79;
      }

      .cls-144 {
        opacity: .8;
      }

      .cls-145 {
        opacity: .8;
      }

      .cls-146 {
        opacity: .83;
      }

      .cls-147 {
        opacity: .81;
      }

      .cls-148 {
        opacity: .81;
      }

      .cls-149 {
        opacity: .81;
      }

      .cls-150 {
        opacity: .81;
      }

      .cls-151 {
        opacity: .81;
      }

      .cls-152 {
        opacity: .82;
      }
    </style>
  </defs>
  <g id="Layer_1" data-name="Layer 1">
    <g>
      <path class="cls-25" d="M521.15,395.54l-26.59-15.48v-30.98l.29-.14,26.29-15.33,26.59,15.48v30.98l-.27.15-26.32,15.33ZM495.69,379.4l25.46,14.85,25.49-14.85v-29.66l-25.49-14.84-25.46,14.84v29.66Z"/>
      <path class="cls-136" d="M104.68,486.54l-.28-.17L0,425.55v-121.95l.28-.17,104.4-60.82.28.17,104.4,60.81v121.95l-.28.17-104.39,60.82ZM1.11,424.91l103.57,60.33,103.56-60.33v-120.68l-103.56-60.33L1.11,304.23v120.68Z"/>
      <path class="cls-55" d="M104.68,395.54l-26.59-15.48v-30.98l.28-.14,26.31-15.33,26.59,15.48v30.98l-.28.15-26.31,15.33ZM79.2,379.4l25.47,14.85,25.48-14.85v-29.66l-25.48-14.84-25.47,14.84v29.66Z"/>
      <path class="cls-106" d="M312.91,789.81l-52.61-30.66v-61.28l.28-.17,52.33-30.49,52.61,30.66v61.28l-.27.17-52.34,30.49ZM261.41,758.51l51.5,30,51.51-30v-60.01l-51.51-30-51.5,30v60.01Z"/>
      <path class="cls-90" d="M312.91,850.45l-104.67-60.96v-121.97l.28-.15,104.39-60.81,104.67,60.96v121.97l-.27.15-104.41,60.81ZM209.35,788.83l103.56,60.33,103.58-60.33v-120.66l-103.58-60.33-103.56,60.33v120.66Z"/>
      <path class="cls-32" d="M521.15,486.54l-.27-.17-208.52-121.46V121.63l.28-.16L521.15,0l.29.16,208.52,121.47v243.27l-.29.15-208.52,121.49ZM313.48,364.24l207.68,121,207.69-121V122.28L521.15,1.29l-207.68,120.98v241.97Z"/>
      <path class="cls-64" d="M312.91,243.91l-.27-.17-104.41-60.82V60.97l.28-.16L312.91,0l.28.16,104.39,60.82v121.95l-.27.17-104.41,60.82ZM209.35,182.29l103.56,60.33,103.58-60.33V61.62L312.91,1.29l-103.56,60.33v120.67Z"/>
      <path class="cls-109" d="M729.41,486.54l-.27-.17-104.39-60.82v-121.95l.27-.17,104.39-60.82.27.17,104.39,60.81v121.95l-.27.17-104.39,60.82ZM625.84,424.91l103.56,60.33,103.56-60.33v-120.68l-103.56-60.33-103.56,60.33v120.68Z"/>
      <path class="cls-138" d="M521.15,547.18l-52.61-30.64v-61.31l.29-.17,52.32-30.49,52.61,30.66v61.31l-.27.15-52.34,30.5ZM469.66,515.88l51.49,30.01,51.51-30.01v-60.01l-51.51-30-51.49,30v60.01Z"/>
      <path class="cls-62" d="M312.91,395.54l-26.57-15.48v-30.98l.27-.14,26.3-15.33,26.59,15.48v30.98l-.28.15-26.3,15.33ZM287.44,379.4l25.47,14.85,25.47-14.85v-29.66l-25.47-14.84-25.47,14.84v29.66Z"/>
      <path class="cls-118" d="M729.41,425.87l-52.61-30.64v-61.3l.27-.15,52.34-30.49,52.61,30.64v61.3l-.27.17-52.34,30.47ZM677.89,394.57l51.51,30.01,51.51-30.01v-60.01l-51.51-29.98-51.51,29.98v60.01Z"/>
      <path class="cls-152" d="M729.41,729.16l-.27-.17-104.39-60.82v-121.95l.27-.17,104.39-60.82.27.17,104.39,60.82v121.95l-.27.15-104.39,60.84ZM625.84,667.52l103.56,60.35,103.56-60.35v-120.65l-103.56-60.33-103.56,60.33v120.65Z"/>
      <polygon class="cls-28" points="382.93 889.95 313.48 849.5 313.48 607.51 521.15 486.54 728.84 607.51 728.84 849.5 659.39 889.95 661.61 889.95 729.68 850.31 729.97 850.13 729.97 606.87 521.45 485.41 521.15 485.24 312.65 606.7 312.36 606.87 312.36 850.13 380.71 889.95 382.93 889.95"/>
      <polygon class="cls-96" points="453.37 889.95 521.15 850.45 588.95 889.95 591.18 889.95 521.15 849.16 451.15 889.95 453.37 889.95"/>
      <polygon class="cls-17" points="313.48 889.95 313.48 850.13 521.15 729.16 728.84 850.13 728.84 889.95 729.97 889.95 729.97 849.5 521.45 728.02 521.15 727.87 312.65 849.33 312.36 849.5 312.36 889.95 313.48 889.95"/>
      <path class="cls-101" d="M521.15,850.45l-104.66-60.96v-121.97l.27-.15,104.39-60.81,104.69,60.96v121.97l-.29.15-104.4,60.81ZM417.59,788.83l103.56,60.33,103.56-60.33v-120.66l-103.56-60.33-103.56,60.33v120.66Z"/>
      <polygon class="cls-10" points="695.3 889.95 677.89 879.82 677.89 819.81 729.41 789.81 780.92 819.81 780.92 879.82 763.51 889.95 765.73 889.95 782.02 880.46 782.02 819.15 729.41 788.51 676.79 819.15 676.79 880.46 693.08 889.95 695.3 889.95"/>
      <polygon class="cls-131" points="453.37 889.95 521.15 850.45 588.95 889.95 591.18 889.95 521.15 849.16 451.15 889.95 453.37 889.95"/>
      <path class="cls-104" d="M521.15,152.93l-26.59-15.49v-30.97l.29-.16,26.29-15.33,26.59,15.49v30.97l-.27.17-26.32,15.32ZM495.69,136.79l25.46,14.85,25.49-14.85v-29.67l-25.49-14.84-25.46,14.84v29.67Z"/>
      <path class="cls-87" d="M937.66,183.26l-52.61-30.66v-61.29l.27-.16,52.34-30.49,52.61,30.65v61.29l-.29.17-52.32,30.49ZM886.14,151.95l51.51,30.02,51.49-30.02v-60l-51.49-30-51.51,30v60Z"/>
      <path class="cls-82" d="M729.41,547.18l-52.61-30.64v-61.31l.27-.17,52.34-30.49,52.61,30.66v61.31l-.27.15-52.34,30.5ZM677.89,515.88l51.51,30.01,51.51-30.01v-60.01l-51.51-30-51.51,30v60.01Z"/>
      <path class="cls-68" d="M521.15,395.54l-26.59-15.48v-30.98l.29-.14,26.29-15.33,26.59,15.48v30.98l-.27.15-26.32,15.33ZM495.69,379.4l25.46,14.85,25.49-14.85v-29.66l-25.49-14.84-25.46,14.84v29.66Z"/>
      <path class="cls-8" d="M521.15,638.17l-26.59-15.5v-30.96l.29-.17,26.29-15.31,26.59,15.48v30.96l-.27.17-26.32,15.33ZM495.69,622.03l25.46,14.84,25.49-14.84v-29.69l-25.49-14.84-25.46,14.84v29.69Z"/>
      <path class="cls-52" d="M937.66,729.16l-.29-.17-104.4-60.82v-121.95l.27-.17,104.42-60.82.27.17,104.39,60.82v121.95l-.27.15-104.4,60.84ZM834.07,667.52l103.59,60.35,103.57-60.35v-120.65l-103.57-60.33-103.59,60.33v120.65Z"/>
      <path class="cls-9" d="M937.66,880.8l-26.59-15.5v-30.96l26.59-15.5,26.56,15.5v30.96l-26.56,15.5ZM912.17,864.66l25.49,14.84,25.47-14.84v-29.69l-25.47-14.85-25.49,14.85v29.69Z"/>
      <polygon class="cls-81" points="834.07 889.95 834.07 789.49 937.66 729.16 1041.22 789.49 1041.22 889.95 1042.32 889.95 1042.32 788.83 937.93 728.02 937.66 727.87 833.24 788.68 832.97 788.83 832.97 889.95 834.07 889.95"/>
      <path class="cls-48" d="M1145.88,183.26l-52.61-30.66v-61.29l.29-.16,52.32-30.49,52.61,30.65v61.29l-.27.17-52.35,30.49ZM1094.37,151.95l51.51,30.02,51.52-30.02v-60l-51.52-30-51.51,30v60Z"/>
      <path class="cls-133" d="M1145.88,729.16l-.27-.17-104.4-60.82v-121.95l.27-.17,104.39-60.82.3.17,104.39,60.82v121.95l-.29.15-104.4,60.84ZM1042.32,667.52l103.56,60.35,103.57-60.35v-120.65l-103.57-60.33-103.56,60.33v120.65Z"/>
      <polygon class="cls-147" points="799.43 889.95 729.97 849.5 729.97 607.51 937.66 486.54 1145.35 607.51 1145.35 849.5 1075.89 889.95 1078.09 889.95 1146.18 850.31 1146.45 850.13 1146.45 606.87 937.93 485.41 937.66 485.24 729.14 606.7 728.84 606.87 728.84 850.13 797.2 889.95 799.43 889.95"/>
      <path class="cls-54" d="M1145.88,880.8l-26.58-15.5v-30.96l26.58-15.5,26.59,15.5v30.96l-26.59,15.5ZM1120.42,864.66l25.46,14.84,25.49-14.84v-29.69l-25.49-14.85-25.46,14.85v29.69Z"/>
      <polygon class="cls-72" points="625.84 889.95 625.84 789.49 729.41 729.16 832.97 789.49 832.97 889.95 834.07 889.95 834.07 788.83 729.68 728.02 729.41 727.87 625.01 788.68 624.74 788.83 624.74 889.95 625.84 889.95"/>
      <path class="cls-27" d="M729.41,880.8l-26.59-15.5v-30.96l26.59-15.5,26.58,15.5v30.96l-26.58,15.5ZM703.92,864.66l25.49,14.84,25.49-14.84v-29.69l-25.49-14.85-25.49,14.85v29.69Z"/>
      <polygon class="cls-59" points="625.84 889.95 625.84 789.49 729.41 729.16 832.97 789.49 832.97 889.95 834.07 889.95 834.07 788.83 729.68 728.02 729.41 727.87 625.01 788.68 624.74 788.83 624.74 889.95 625.84 889.95"/>
      <polygon class="cls-58" points="869.86 889.95 937.66 850.45 1005.43 889.95 1007.65 889.95 937.66 849.16 867.64 889.95 869.86 889.95"/>
      <path class="cls-65" d="M937.66,152.93l-26.59-15.49v-30.97l.27-.16,26.32-15.33,26.56,15.49v30.97l-.27.17-26.3,15.32ZM912.17,136.79l25.49,14.85,25.47-14.85v-29.67l-25.47-14.84-25.49,14.84v29.67Z"/>
      <path class="cls-108" d="M937.66,395.54l-26.59-15.48v-30.98l.27-.14,26.32-15.33,26.56,15.48v30.98l-.27.15-26.3,15.33ZM912.17,379.4l25.49,14.85,25.47-14.85v-29.66l-25.47-14.84-25.49,14.84v29.66Z"/>
      <path class="cls-20" d="M937.66,729.16l-.29-.17-104.4-60.82v-121.95l.27-.17,104.42-60.82.27.17,104.39,60.82v121.95l-.27.15-104.4,60.84ZM834.07,667.52l103.59,60.35,103.57-60.35v-120.65l-103.57-60.33-103.59,60.33v120.65Z"/>
      <path class="cls-83" d="M1354.14,668.49l-52.61-30.64v-61.3l.27-.17,52.34-30.49,52.61,30.66v61.3l-.27.15-52.35,30.49ZM1302.62,637.19l51.51,30.01,51.52-30.01v-60.01l-51.52-30-51.51,30v60.01Z"/>
      <path class="cls-39" d="M1145.88,850.45l-104.66-60.96v-121.97l.27-.15,104.39-60.81,104.69,60.96v121.97l-.29.15-104.4,60.81ZM1042.32,788.83l103.56,60.33,103.57-60.33v-120.66l-103.57-60.33-103.56,60.33v120.66Z"/>
      <path class="cls-86" d="M1354.14,729.16l-.27-.17-208.52-121.49v-243.26l.27-.15,208.52-121.49.27.17,208.52,121.46v243.26l-.27.17-208.52,121.48ZM1146.45,606.87l207.69,121,207.69-121v-241.97l-207.69-121-207.69,121v241.97Z"/>
      <path class="cls-40" d="M1145.88,395.54l-26.58-15.48v-30.98l.29-.14,26.29-15.33,26.59,15.48v30.98l-.27.15-26.32,15.33ZM1120.42,379.4l25.46,14.85,25.49-14.85v-29.66l-25.49-14.84-25.46,14.84v29.66Z"/>
      <path class="cls-116" d="M1562.39,486.54l-.29-.17-104.4-60.82v-121.95l.27-.17,104.42-60.82.27.17,104.4,60.81v121.95l-.27.17-104.4,60.82ZM1458.8,424.91l103.59,60.33,103.57-60.33v-120.68l-103.57-60.33-103.59,60.33v120.68Z"/>
      <path class="cls-21" d="M1354.14,789.81l-52.61-30.66v-61.28l.27-.17,52.34-30.49,52.61,30.66v61.28l-.27.17-52.35,30.49ZM1302.62,758.51l51.51,30,51.52-30v-60.01l-51.52-30-51.51,30v60.01Z"/>
      <path class="cls-145" d="M1354.14,607.85l-.27-.17-104.42-60.82v-121.95l.29-.17,104.39-60.82.27.17,104.39,60.81v121.95l-.27.17-104.4,60.82ZM1250.57,546.23l103.57,60.33,103.57-60.33v-120.68l-103.57-60.33-103.57,60.33v120.68Z"/>
      <polygon class="cls-1" points="1286.34 889.95 1354.14 850.45 1421.93 889.95 1424.16 889.95 1354.14 849.16 1284.12 889.95 1286.34 889.95"/>
      <polygon class="cls-130" points="1042.32 889.95 1042.32 789.49 1145.88 729.16 1249.45 789.49 1249.45 889.95 1250.57 889.95 1250.57 788.83 1146.18 728.02 1145.88 727.87 1041.49 788.68 1041.22 788.83 1041.22 889.95 1042.32 889.95"/>
      <path class="cls-30" d="M1354.14,850.45l-104.69-60.96v-121.97l.29-.15,104.39-60.81,104.66,60.96v121.97l-.27.15-104.4,60.81ZM1250.57,788.83l103.57,60.33,103.57-60.33v-120.66l-103.57-60.33-103.57,60.33v120.66Z"/>
      <polygon class="cls-112" points="1528.26 889.95 1510.88 879.82 1510.88 819.81 1562.39 789.81 1613.88 819.81 1613.88 879.82 1596.5 889.95 1598.69 889.95 1615 880.46 1615 819.15 1562.39 788.51 1509.75 819.15 1509.75 880.46 1526.06 889.95 1528.26 889.95"/>
      <polygon class="cls-24" points="1286.34 889.95 1354.14 850.45 1421.93 889.95 1424.16 889.95 1354.14 849.16 1284.12 889.95 1286.34 889.95"/>
      <path class="cls-122" d="M1354.14,152.93l-26.59-15.49v-30.97l.27-.16,26.32-15.33,26.59,15.49v30.97l-.29.17-26.3,15.32ZM1328.65,136.79l25.49,14.85,25.47-14.85v-29.67l-25.47-14.84-25.49,14.84v29.67Z"/>
      <path class="cls-71" d="M1354.14,243.91l-.27-.17-104.42-60.82V60.97l.29-.16L1354.14,0l.27.16,104.39,60.82v121.95l-.27.17-104.4,60.82ZM1250.57,182.29l103.57,60.33,103.57-60.33V61.62L1354.14,1.29l-103.57,60.33v120.67Z"/>
      <path class="cls-29" d="M1770.62,243.91l-.27-.17-104.4-60.82V60.97l.27-.16L1770.62,0l104.69,60.97v121.95l-.29.17-104.39,60.82ZM1667.05,182.29l103.57,60.33,103.56-60.33V61.62L1770.62,1.29l-103.57,60.33v120.67Z"/>
      <path class="cls-70" d="M1770.62,486.54l-104.66-60.99v-121.95l.27-.17,104.4-60.82,104.69,60.99v121.95l-.29.17-104.39,60.82ZM1667.05,424.91l103.57,60.33,103.56-60.33v-120.68l-103.56-60.33-103.57,60.33v120.68Z"/>
      <path class="cls-103" d="M1562.39,729.16l-.29-.17-208.52-121.49v-243.26l.29-.15,208.52-121.49.27.17,208.52,121.46v243.26l-.27.17-208.52,121.48ZM1354.7,606.87l207.69,121,207.69-121v-241.97l-207.69-121-207.69,121v241.97Z"/>
      <path class="cls-79" d="M1354.14,395.54l-26.59-15.48v-30.98l.27-.14,26.32-15.33,26.59,15.48v30.98l-.29.15-26.3,15.33ZM1328.65,379.4l25.49,14.85,25.47-14.85v-29.66l-25.47-14.84-25.49,14.84v29.66Z"/>
      <path class="cls-63" d="M1354.14,638.17l-26.59-15.5v-30.96l.27-.17,26.32-15.31,26.59,15.48v30.96l-.29.17-26.3,15.33ZM1328.65,622.03l25.49,14.84,25.47-14.84v-29.69l-25.47-14.84-25.49,14.84v29.69Z"/>
      <path class="cls-45" d="M1770.62,880.8l-26.59-15.5v-30.96l26.59-15.5,26.59,15.5v30.96l-26.59,15.5ZM1745.15,864.66l25.47,14.84,25.49-14.84v-29.69l-25.49-14.85-25.47,14.85v29.69Z"/>
      <path class="cls-5" d="M1562.39,395.54l-26.59-15.48v-30.98l.27-.14,26.32-15.33,26.56,15.48v30.98l-.27.15-26.3,15.33ZM1536.9,379.4l25.49,14.85,25.47-14.85v-29.66l-25.47-14.84-25.49,14.84v29.66Z"/>
      <path class="cls-3" d="M1562.39,486.54l-.29-.17-104.4-60.82v-121.95l.27-.17,104.42-60.82.27.17,104.4,60.81v121.95l-.27.17-104.4,60.82ZM1458.8,424.91l103.59,60.33,103.57-60.33v-120.68l-103.57-60.33-103.59,60.33v120.68Z"/>
      <polygon class="cls-74" points="1930.73 699.81 1875.3 667.52 1875.3 546.86 1930.73 514.56 1930.73 513.29 1874.48 546.06 1874.18 546.23 1874.18 668.18 1930.73 701.11 1930.73 699.81"/>
      <path class="cls-4" d="M1770.62,850.45l-104.66-60.96v-121.97l.27-.15,104.4-60.81,104.69,60.96v121.97l-.29.15-104.39,60.81ZM1667.05,788.83l103.57,60.33,103.56-60.33v-120.66l-103.56-60.33-103.57,60.33v120.66Z"/>
      <polygon class="cls-77" points="1930.73 639.15 1927.35 637.19 1927.35 577.19 1930.73 575.23 1930.73 573.94 1926.52 576.38 1926.26 576.55 1926.26 637.85 1930.73 640.44 1930.73 639.15"/>
      <polygon class="cls-120" points="1702.82 889.95 1770.62 850.45 1838.41 889.95 1840.64 889.95 1770.62 849.16 1700.6 889.95 1702.82 889.95"/>
      <polygon class="cls-117" points="1458.8 889.95 1458.8 789.49 1562.39 729.16 1665.95 789.49 1665.95 889.95 1667.05 889.95 1667.05 788.83 1562.66 728.02 1562.39 727.87 1457.99 788.68 1457.7 788.83 1457.7 889.95 1458.8 889.95"/>
      <path class="cls-89" d="M1770.62,850.45l-104.66-60.96v-121.97l.27-.15,104.4-60.81,104.69,60.96v121.97l-.29.15-104.39,60.81ZM1667.05,788.83l103.57,60.33,103.56-60.33v-120.66l-103.56-60.33-103.57,60.33v120.66Z"/>
      <polygon class="cls-148" points="1930.73 699.81 1771.18 606.87 1771.18 364.9 1930.73 271.96 1930.73 270.66 1770.35 364.1 1770.08 364.24 1770.08 607.51 1930.73 701.11 1930.73 699.81"/>
      <polygon class="cls-73" points="1840.64 889.95 1771.18 849.5 1771.18 607.51 1930.73 514.56 1930.73 513.29 1770.35 606.7 1770.08 606.87 1770.08 850.13 1838.41 889.95 1840.64 889.95"/>
      <polygon class="cls-49" points="1930.73 578.5 1875.3 546.23 1875.3 425.55 1930.73 393.27 1930.73 391.98 1874.48 424.74 1874.18 424.91 1874.18 546.86 1930.73 579.8 1930.73 578.5"/>
      <polygon class="cls-42" points="1911.07 889.95 1930.73 878.5 1930.73 877.21 1908.85 889.95 1911.07 889.95"/>
      <polygon class="cls-69" points="1911.07 889.95 1930.73 878.5 1930.73 877.21 1908.85 889.95 1911.07 889.95"/>
      <polygon class="cls-94" points="1930.73 214.59 1875.3 182.29 1875.3 61.62 1930.73 29.33 1930.73 28.05 1874.48 60.82 1874.18 60.97 1874.18 182.92 1930.73 215.86 1930.73 214.59"/>
      <polygon class="cls-114" points="1875.3 889.95 1875.3 789.49 1930.73 757.19 1930.73 755.89 1874.48 788.68 1874.18 788.83 1874.18 889.95 1875.3 889.95"/>
      <path class="cls-150" d="M501.77,379.75c0,3.69-2.98,6.69-6.64,6.69s-6.64-3-6.64-6.69,2.98-6.72,6.64-6.72,6.64,3,6.64,6.72Z"/>
      <path class="cls-124" d="M527.79,394.91c0,3.69-2.95,6.69-6.64,6.69s-6.64-3-6.64-6.69,2.98-6.71,6.64-6.71,6.64,3,6.64,6.71Z"/>
      <path class="cls-132" d="M553.84,379.75c0,3.69-2.98,6.69-6.66,6.69s-6.64-3-6.64-6.69,2.98-6.72,6.64-6.72,6.66,3,6.66,6.72Z"/>
      <path class="cls-137" d="M111.31,485.88c0,3.71-2.96,6.72-6.64,6.72s-6.64-3-6.64-6.72,2.97-6.69,6.64-6.69,6.64,3,6.64,6.69Z"/>
      <path class="cls-31" d="M85.29,349.4c0,3.71-2.98,6.72-6.64,6.72s-6.65-3-6.65-6.72,2.98-6.69,6.65-6.69,6.64,3,6.64,6.69Z"/>
      <path class="cls-115" d="M371.62,758.82c0,3.71-2.96,6.71-6.64,6.71s-6.64-3-6.64-6.71,2.98-6.69,6.64-6.69,6.64,3,6.64,6.69Z"/>
      <path class="cls-6" d="M215.44,789.15c0,3.71-2.98,6.71-6.64,6.71s-6.65-3-6.65-6.71,2.98-6.69,6.65-6.69,6.64,3,6.64,6.69Z"/>
      <path class="cls-139" d="M423.68,667.86c0,3.69-2.98,6.69-6.64,6.69s-6.64-3-6.64-6.69,2.97-6.71,6.64-6.71,6.64,3,6.64,6.71Z"/>
      <path class="cls-151" d="M215.44,667.86c0,3.69-2.98,6.69-6.64,6.69s-6.65-3-6.65-6.69,2.98-6.71,6.65-6.71,6.64,3,6.64,6.71Z"/>
      <path class="cls-125" d="M319.57,364.56c0,3.71-2.98,6.71-6.65,6.71s-6.64-3-6.64-6.71,2.98-6.69,6.64-6.69,6.65,3,6.65,6.69Z"/>
      <path class="cls-67" d="M319.57,121.96c0,3.7-2.98,6.7-6.65,6.7s-6.64-3-6.64-6.7,2.98-6.72,6.64-6.72,6.65,3,6.65,6.72Z"/>
      <path class="cls-7" d="M423.68,182.61c0,3.71-2.97,6.71-6.64,6.71s-6.64-3-6.64-6.71,2.97-6.69,6.64-6.69,6.64,3,6.64,6.69Z"/>
      <path class="cls-140" d="M215.44,61.3c0,3.7-2.98,6.7-6.64,6.7s-6.65-3-6.65-6.7,2.98-6.7,6.65-6.7,6.64,3.01,6.64,6.7Z"/>
      <path class="cls-34" d="M527.79,546.55c0,3.68-2.95,6.69-6.64,6.69s-6.64-3-6.64-6.69,2.98-6.72,6.64-6.72,6.64,3,6.64,6.72Z"/>
      <path class="cls-85" d="M579.87,455.55c0,3.71-2.98,6.72-6.64,6.72s-6.66-3-6.66-6.72,2.98-6.71,6.66-6.71,6.64,3.03,6.64,6.71Z"/>
      <path class="cls-75" d="M475.74,455.55c0,3.71-2.98,6.72-6.64,6.72s-6.64-3-6.64-6.72,2.98-6.71,6.64-6.71,6.64,3.03,6.64,6.71Z"/>
      <path class="cls-102" d="M684,394.91c0,3.69-2.98,6.69-6.64,6.69s-6.66-3-6.66-6.69,2.98-6.71,6.66-6.71,6.64,3,6.64,6.71Z"/>
      <path class="cls-88" d="M736.05,425.23c0,3.71-2.98,6.69-6.64,6.69s-6.64-2.98-6.64-6.69,2.98-6.71,6.64-6.71,6.64,3,6.64,6.71Z"/>
      <path class="cls-46" d="M631.92,667.86c0,3.69-2.98,6.69-6.64,6.69s-6.64-3-6.64-6.69,2.98-6.71,6.64-6.71,6.64,3,6.64,6.71Z"/>
      <path class="cls-127" d="M736.05,849.81c0,3.69-2.98,6.69-6.64,6.69s-6.64-3-6.64-6.69,2.98-6.71,6.64-6.71,6.64,3,6.64,6.71Z"/>
      <path class="cls-47" d="M527.79,728.5c0,3.71-2.95,6.71-6.64,6.71s-6.64-3-6.64-6.71,2.98-6.72,6.64-6.72,6.64,3.01,6.64,6.72Z"/>
      <path class="cls-14" d="M684,880.14c0,3.71-2.98,6.72-6.64,6.72s-6.66-3-6.66-6.72,2.98-6.71,6.66-6.71,6.64,3,6.64,6.71Z"/>
      <path class="cls-142" d="M527.79,91.62c0,3.71-2.95,6.7-6.64,6.7s-6.64-2.99-6.64-6.7,2.98-6.7,6.64-6.7,6.64,3,6.64,6.7Z"/>
      <path class="cls-11" d="M788.12,516.2c0,3.71-2.98,6.71-6.66,6.71s-6.64-3-6.64-6.71,2.98-6.69,6.64-6.69,6.66,3,6.66,6.69Z"/>
      <path class="cls-53" d="M684,455.55c0,3.71-2.98,6.72-6.64,6.72s-6.66-3-6.66-6.72,2.98-6.71,6.66-6.71,6.64,3.03,6.64,6.71Z"/>
      <path class="cls-66" d="M501.77,379.75c0,3.69-2.98,6.69-6.64,6.69s-6.64-3-6.64-6.69,2.98-6.72,6.64-6.72,6.64,3,6.64,6.72Z"/>
      <path class="cls-149" d="M553.84,592.03c0,3.71-2.98,6.72-6.66,6.72s-6.64-3.01-6.64-6.72,2.98-6.71,6.64-6.71,6.66,3,6.66,6.71Z"/>
      <path class="cls-134" d="M840.17,667.86c0,3.69-2.98,6.69-6.64,6.69s-6.64-3-6.64-6.69,2.95-6.71,6.64-6.71,6.64,3,6.64,6.71Z"/>
      <path class="cls-13" d="M944.3,728.5c0,3.71-2.98,6.71-6.64,6.71s-6.66-3-6.66-6.71,2.98-6.72,6.66-6.72,6.64,3.01,6.64,6.72Z"/>
      <path class="cls-93" d="M1048.43,667.86c0,3.69-2.98,6.69-6.67,6.69s-6.64-3-6.64-6.69,2.98-6.71,6.64-6.71,6.67,3,6.67,6.71Z"/>
      <path class="cls-19" d="M1048.43,546.55c0,3.68-2.98,6.69-6.67,6.69s-6.64-3-6.64-6.69,2.98-6.72,6.64-6.72,6.67,3,6.67,6.72Z"/>
      <path class="cls-92" d="M944.3,485.88c0,3.71-2.98,6.72-6.64,6.72s-6.66-3-6.66-6.72,2.98-6.69,6.66-6.69,6.64,3,6.64,6.69Z"/>
      <path class="cls-61" d="M918.27,834.65c0,3.69-2.98,6.69-6.67,6.69s-6.64-3-6.64-6.69,2.98-6.72,6.64-6.72,6.67,3,6.67,6.72Z"/>
      <path class="cls-56" d="M1152.53,61.3c0,3.7-2.96,6.7-6.64,6.7s-6.64-3-6.64-6.7,2.98-6.7,6.64-6.7,6.64,3.01,6.64,6.7Z"/>
      <path class="cls-135" d="M1152.53,728.5c0,3.71-2.96,6.71-6.64,6.71s-6.64-3-6.64-6.71,2.98-6.72,6.64-6.72,6.64,3.01,6.64,6.72Z"/>
      <path class="cls-23" d="M736.05,849.81c0,3.69-2.98,6.69-6.64,6.69s-6.64-3-6.64-6.69,2.98-6.71,6.64-6.71,6.64,3,6.64,6.71Z"/>
      <path class="cls-110" d="M1126.5,864.98c0,3.71-2.98,6.71-6.64,6.71s-6.64-3-6.64-6.71,2.98-6.72,6.64-6.72,6.64,3,6.64,6.72Z"/>
      <path class="cls-43" d="M710.02,864.98c0,3.71-2.98,6.71-6.64,6.71s-6.64-3-6.64-6.71,2.98-6.72,6.64-6.72,6.64,3,6.64,6.72Z"/>
      <path class="cls-107" d="M918.27,137.12c0,3.7-2.98,6.7-6.67,6.7s-6.64-3-6.64-6.7,2.98-6.7,6.64-6.7,6.67,3,6.67,6.7Z"/>
      <path class="cls-113" d="M944.3,334.24c0,3.71-2.98,6.71-6.64,6.71s-6.66-3-6.66-6.71,2.98-6.69,6.66-6.69,6.64,3,6.64,6.69Z"/>
      <path class="cls-36" d="M1360.78,667.86c0,3.69-2.98,6.69-6.64,6.69s-6.64-3-6.64-6.69,2.98-6.71,6.64-6.71,6.64,3,6.64,6.71Z"/>
      <path class="cls-105" d="M1256.65,667.86c0,3.69-2.98,6.69-6.64,6.69s-6.64-3-6.64-6.69,2.98-6.71,6.64-6.71,6.64,3,6.64,6.71Z"/>
      <path class="cls-41" d="M1152.53,607.19c0,3.71-2.96,6.71-6.64,6.71s-6.64-3-6.64-6.71,2.98-6.72,6.64-6.72,6.64,3.03,6.64,6.72Z"/>
      <path class="cls-26" d="M1152.53,364.56c0,3.71-2.96,6.71-6.64,6.71s-6.64-3-6.64-6.71,2.98-6.69,6.64-6.69,6.64,3,6.64,6.69Z"/>
      <path class="cls-123" d="M1178.58,379.75c0,3.69-2.98,6.69-6.67,6.69s-6.64-3-6.64-6.69,2.98-6.72,6.64-6.72,6.67,3,6.67,6.72Z"/>
      <path class="cls-143" d="M1569.03,243.27c0,3.69-2.98,6.69-6.64,6.69s-6.66-3-6.66-6.69,2.98-6.71,6.66-6.71,6.64,3,6.64,6.71Z"/>
      <path class="cls-100" d="M1464.9,303.92c0,3.71-2.98,6.71-6.64,6.71s-6.64-3-6.64-6.71,2.95-6.72,6.64-6.72,6.64,3,6.64,6.72Z"/>
      <path class="cls-12" d="M1308.73,698.18c0,3.69-2.98,6.69-6.64,6.69s-6.67-3-6.67-6.69,2.98-6.72,6.67-6.72,6.64,3,6.64,6.72Z"/>
      <path class="cls-84" d="M1464.9,546.55c0,3.68-2.98,6.69-6.64,6.69s-6.64-3-6.64-6.69,2.95-6.72,6.64-6.72,6.64,3,6.64,6.72Z"/>
      <path class="cls-15" d="M1360.78,849.81c0,3.69-2.98,6.69-6.64,6.69s-6.64-3-6.64-6.69,2.98-6.71,6.64-6.71,6.64,3,6.64,6.71Z"/>
      <path class="cls-128" d="M1152.53,728.5c0,3.71-2.96,6.71-6.64,6.71s-6.64-3-6.64-6.71,2.98-6.72,6.64-6.72,6.64,3.01,6.64,6.72Z"/>
      <path class="cls-22" d="M1464.9,789.15c0,3.71-2.98,6.71-6.64,6.71s-6.66-3-6.66-6.71,2.98-6.69,6.66-6.69,6.64,3,6.64,6.69Z"/>
      <path class="cls-119" d="M1256.65,667.86c0,3.69-2.98,6.69-6.64,6.69s-6.64-3-6.64-6.69,2.98-6.71,6.64-6.71,6.64,3,6.64,6.71Z"/>
      <path class="cls-37" d="M1621.08,880.14c0,3.71-2.98,6.72-6.64,6.72s-6.64-3-6.64-6.72,2.98-6.71,6.64-6.71,6.64,3,6.64,6.71Z"/>
      <path class="cls-44" d="M1569.03,789.15c0,3.71-2.98,6.71-6.64,6.71s-6.66-3-6.66-6.71,2.98-6.69,6.66-6.69,6.64,3,6.64,6.69Z"/>
      <path class="cls-16" d="M1360.78,91.62c0,3.71-2.98,6.7-6.64,6.7s-6.64-2.99-6.64-6.7,2.98-6.7,6.64-6.7,6.64,3,6.64,6.7Z"/>
      <path class="cls-76" d="M1256.65,182.61c0,3.71-2.98,6.71-6.64,6.71s-6.64-3-6.64-6.71,2.98-6.69,6.64-6.69,6.64,3,6.64,6.69Z"/>
      <path class="cls-80" d="M1673.16,182.61c0,3.71-2.98,6.71-6.66,6.71s-6.64-3-6.64-6.71,2.98-6.69,6.64-6.69,6.66,3,6.66,6.69Z"/>
      <path class="cls-78" d="M1777.26,485.88c0,3.71-2.95,6.72-6.64,6.72s-6.64-3-6.64-6.72,2.98-6.69,6.64-6.69,6.64,3,6.64,6.69Z"/>
      <path class="cls-144" d="M1881.38,425.23c0,3.71-2.98,6.69-6.64,6.69s-6.64-2.98-6.64-6.69,2.98-6.71,6.64-6.71,6.64,3,6.64,6.71Z"/>
      <path class="cls-97" d="M1334.75,379.75c0,3.69-2.98,6.69-6.64,6.69s-6.64-3-6.64-6.69,2.95-6.72,6.64-6.72,6.64,3,6.64,6.72Z"/>
      <path class="cls-98" d="M1360.78,334.24c0,3.71-2.98,6.71-6.64,6.71s-6.64-3-6.64-6.71,2.98-6.69,6.64-6.69,6.64,3,6.64,6.69Z"/>
      <path class="cls-129" d="M1334.75,622.35c0,3.71-2.98,6.72-6.64,6.72s-6.64-3-6.64-6.72,2.95-6.69,6.64-6.69,6.64,3,6.64,6.69Z"/>
      <path class="cls-51" d="M1360.78,637.51c0,3.71-2.98,6.71-6.64,6.71s-6.64-3-6.64-6.71,2.98-6.69,6.64-6.69,6.64,3,6.64,6.69Z"/>
      <path class="cls-50" d="M1386.8,592.03c0,3.71-2.98,6.72-6.64,6.72s-6.64-3.01-6.64-6.72,2.98-6.71,6.64-6.71,6.64,3,6.64,6.71Z"/>
      <path class="cls-60" d="M1334.75,592.03c0,3.71-2.98,6.72-6.64,6.72s-6.64-3.01-6.64-6.72,2.95-6.71,6.64-6.71,6.64,3,6.64,6.71Z"/>
      <path class="cls-2" d="M1777.26,880.14c0,3.71-2.95,6.72-6.64,6.72s-6.64-3-6.64-6.72,2.98-6.71,6.64-6.71,6.64,3,6.64,6.71Z"/>
      <path class="cls-95" d="M1777.26,819.49c0,3.69-2.95,6.69-6.64,6.69s-6.64-3-6.64-6.69,2.98-6.71,6.64-6.71,6.64,3,6.64,6.71Z"/>
      <path class="cls-111" d="M1595.05,379.75c0,3.69-2.98,6.69-6.64,6.69s-6.64-3-6.64-6.69,2.95-6.72,6.64-6.72,6.64,3,6.64,6.72Z"/>
      <path class="cls-35" d="M1543,349.4c0,3.71-2.98,6.72-6.66,6.72s-6.64-3-6.64-6.72,2.98-6.69,6.64-6.69,6.66,3,6.66,6.69Z"/>
      <path class="cls-146" d="M1673.16,303.92c0,3.71-2.98,6.71-6.66,6.71s-6.64-3-6.64-6.71,2.98-6.72,6.64-6.72,6.66,3,6.66,6.72Z"/>
      <path class="cls-99" d="M1569.03,243.27c0,3.69-2.98,6.69-6.64,6.69s-6.66-3-6.66-6.69,2.98-6.71,6.66-6.71,6.64,3,6.64,6.71Z"/>
      <path class="cls-126" d="M1464.9,303.92c0,3.71-2.98,6.71-6.64,6.71s-6.64-3-6.64-6.71,2.95-6.72,6.64-6.72,6.64,3,6.64,6.72Z"/>
      <path class="cls-91" d="M1881.38,667.86c0,3.69-2.98,6.69-6.64,6.69s-6.64-3-6.64-6.69,2.98-6.71,6.64-6.71,6.64,3,6.64,6.71Z"/>
      <path class="cls-121" d="M1881.38,546.55c0,3.68-2.98,6.69-6.64,6.69s-6.64-3-6.64-6.69,2.98-6.72,6.64-6.72,6.64,3,6.64,6.72Z"/>
      <path class="cls-141" d="M1930.73,571.47c-1.1-.81-2.44-1.32-3.93-1.32-3.66,0-6.64,3-6.64,6.72s2.98,6.71,6.64,6.71c1.49,0,2.83-.51,3.93-1.32v-10.79Z"/>
      <path class="cls-33" d="M1464.9,789.15c0,3.71-2.98,6.71-6.64,6.71s-6.64-3-6.64-6.71,2.95-6.69,6.64-6.69,6.64,3,6.64,6.69Z"/>
      <path class="cls-38" d="M1881.38,789.15c0,3.71-2.98,6.71-6.64,6.71s-6.64-3-6.64-6.71,2.98-6.69,6.64-6.69,6.64,3,6.64,6.69Z"/>
      <path class="cls-18" d="M1777.26,364.56c0,3.71-2.95,6.71-6.64,6.71s-6.64-3-6.64-6.71,2.98-6.69,6.64-6.69,6.64,3,6.64,6.69Z"/>
      <path class="cls-57" d="M1777.26,607.19c0,3.71-2.95,6.71-6.64,6.71s-6.64-3-6.64-6.71,2.98-6.72,6.64-6.72,6.64,3.03,6.64,6.72Z"/>
    </g>
  </g>
</svg>